<mxfile host="app.diagrams.net" modified="2024-07-28T09:53:45.108Z" agent="Mozilla/5.0 (Windows NT 10.0; Win64; x64; rv:128.0) Gecko/20100101 Firefox/128.0" etag="dZm6JZTsHuA3e2X_odOd" version="24.7.1" type="device" pages="7">
  <diagram name="Контекстная диаграмма" id="Toz7Doyztl5jM_Nnlvki">
    <mxGraphModel dx="1500" dy="809" grid="1" gridSize="10" guides="1" tooltips="1" connect="1" arrows="1" fold="1" page="1" pageScale="1" pageWidth="1169" pageHeight="827" math="0" shadow="0">
      <root>
        <mxCell id="0" />
        <mxCell id="1" parent="0" />
        <mxCell id="cXRCFu6r_izY6FV5tgU2-16" style="edgeStyle=orthogonalEdgeStyle;rounded=0;orthogonalLoop=1;jettySize=auto;html=1;entryX=0;entryY=0.25;entryDx=0;entryDy=0;strokeWidth=4;" parent="1" target="cXRCFu6r_izY6FV5tgU2-1" edge="1">
          <mxGeometry relative="1" as="geometry">
            <mxPoint x="70" y="360" as="targetPoint" />
            <mxPoint x="10" y="364" as="sourcePoint" />
          </mxGeometry>
        </mxCell>
        <mxCell id="cXRCFu6r_izY6FV5tgU2-17" value="Заявка заказчика" style="edgeLabel;html=1;align=center;verticalAlign=middle;resizable=0;points=[];labelBackgroundColor=none;fontSize=16;fontFamily=Lucida Console;" parent="cXRCFu6r_izY6FV5tgU2-16" vertex="1" connectable="0">
          <mxGeometry x="-0.0081" relative="1" as="geometry">
            <mxPoint x="-4" y="-14" as="offset" />
          </mxGeometry>
        </mxCell>
        <mxCell id="cXRCFu6r_izY6FV5tgU2-18" style="edgeStyle=orthogonalEdgeStyle;rounded=0;orthogonalLoop=1;jettySize=auto;html=1;entryX=0;entryY=0.5;entryDx=0;entryDy=0;strokeWidth=4;" parent="1" target="cXRCFu6r_izY6FV5tgU2-1" edge="1">
          <mxGeometry relative="1" as="geometry">
            <mxPoint x="80" y="490" as="targetPoint" />
            <mxPoint x="10" y="414" as="sourcePoint" />
          </mxGeometry>
        </mxCell>
        <mxCell id="cXRCFu6r_izY6FV5tgU2-20" value="Идентификационные документы&lt;br style=&quot;font-size: 16px;&quot;&gt;(Паспортные данные, ЕГРЮЛ, ЕГРИП)" style="edgeLabel;html=1;align=center;verticalAlign=middle;resizable=0;points=[];labelBackgroundColor=none;fontSize=16;fontFamily=Lucida Console;" parent="cXRCFu6r_izY6FV5tgU2-18" vertex="1" connectable="0">
          <mxGeometry x="-0.227" y="-3" relative="1" as="geometry">
            <mxPoint x="30" y="-27" as="offset" />
          </mxGeometry>
        </mxCell>
        <mxCell id="cXRCFu6r_izY6FV5tgU2-21" style="edgeStyle=orthogonalEdgeStyle;rounded=0;orthogonalLoop=1;jettySize=auto;html=1;entryX=0;entryY=0.75;entryDx=0;entryDy=0;strokeWidth=4;" parent="1" target="cXRCFu6r_izY6FV5tgU2-1" edge="1">
          <mxGeometry relative="1" as="geometry">
            <mxPoint x="40" y="480" as="targetPoint" />
            <mxPoint x="10" y="464" as="sourcePoint" />
          </mxGeometry>
        </mxCell>
        <mxCell id="cXRCFu6r_izY6FV5tgU2-22" value="Карточка сведений&lt;br&gt;(ИНН, банковский счет)" style="edgeLabel;html=1;align=center;verticalAlign=middle;resizable=0;points=[];labelBackgroundColor=none;fontSize=16;fontFamily=Lucida Console;" parent="cXRCFu6r_izY6FV5tgU2-21" vertex="1" connectable="0">
          <mxGeometry x="0.4074" y="-4" relative="1" as="geometry">
            <mxPoint x="-67" y="-28" as="offset" />
          </mxGeometry>
        </mxCell>
        <mxCell id="cXRCFu6r_izY6FV5tgU2-23" style="edgeStyle=orthogonalEdgeStyle;rounded=0;orthogonalLoop=1;jettySize=auto;html=1;entryX=0.077;entryY=-0.001;entryDx=0;entryDy=0;entryPerimeter=0;strokeWidth=4;" parent="1" target="cXRCFu6r_izY6FV5tgU2-1" edge="1">
          <mxGeometry relative="1" as="geometry">
            <mxPoint x="440" y="120" as="targetPoint" />
            <mxPoint x="360" y="10" as="sourcePoint" />
          </mxGeometry>
        </mxCell>
        <mxCell id="cXRCFu6r_izY6FV5tgU2-24" value="7-ФЗ &quot;О некоммерческих &lt;br style=&quot;font-size: 16px;&quot;&gt;организациях&quot;" style="edgeLabel;html=1;align=center;verticalAlign=middle;resizable=0;points=[];fontSize=16;fontFamily=Lucida Console;labelBackgroundColor=none;rotation=-90;" parent="cXRCFu6r_izY6FV5tgU2-23" vertex="1" connectable="0">
          <mxGeometry x="0.0126" y="-2" relative="1" as="geometry">
            <mxPoint x="-36" y="3" as="offset" />
          </mxGeometry>
        </mxCell>
        <mxCell id="cXRCFu6r_izY6FV5tgU2-25" style="edgeStyle=orthogonalEdgeStyle;rounded=0;orthogonalLoop=1;jettySize=auto;html=1;strokeWidth=4;entryX=0.232;entryY=-0.001;entryDx=0;entryDy=0;entryPerimeter=0;" parent="1" target="cXRCFu6r_izY6FV5tgU2-1" edge="1">
          <mxGeometry relative="1" as="geometry">
            <mxPoint x="470" y="313" as="targetPoint" />
            <mxPoint x="440" y="10" as="sourcePoint" />
          </mxGeometry>
        </mxCell>
        <mxCell id="cXRCFu6r_izY6FV5tgU2-26" value="131-ФЗ &quot;Об общих принципах &lt;br style=&quot;font-size: 16px;&quot;&gt;организации местного &lt;br&gt;самоуправления в РФ&quot;" style="edgeLabel;html=1;align=center;verticalAlign=middle;resizable=0;points=[];fontSize=16;fontFamily=Lucida Console;labelBackgroundColor=none;rotation=-90;" parent="cXRCFu6r_izY6FV5tgU2-25" vertex="1" connectable="0">
          <mxGeometry x="-0.0717" relative="1" as="geometry">
            <mxPoint x="-40" y="7" as="offset" />
          </mxGeometry>
        </mxCell>
        <mxCell id="cXRCFu6r_izY6FV5tgU2-28" style="edgeStyle=orthogonalEdgeStyle;rounded=0;orthogonalLoop=1;jettySize=auto;html=1;entryX=0.348;entryY=-0.001;entryDx=0;entryDy=0;entryPerimeter=0;strokeWidth=4;" parent="1" target="cXRCFu6r_izY6FV5tgU2-1" edge="1">
          <mxGeometry relative="1" as="geometry">
            <mxPoint x="499.568" y="314.0000000000001" as="targetPoint" />
            <mxPoint x="500" y="10" as="sourcePoint" />
          </mxGeometry>
        </mxCell>
        <mxCell id="cXRCFu6r_izY6FV5tgU2-29" value="174-ФЗ &quot;Об автономных учреждениях&quot;" style="edgeLabel;html=1;align=center;verticalAlign=middle;resizable=0;points=[];labelBackgroundColor=none;fontSize=16;rotation=-90;" parent="cXRCFu6r_izY6FV5tgU2-28" vertex="1" connectable="0">
          <mxGeometry x="-0.4019" y="-1" relative="1" as="geometry">
            <mxPoint x="-29" y="59" as="offset" />
          </mxGeometry>
        </mxCell>
        <mxCell id="cXRCFu6r_izY6FV5tgU2-30" style="edgeStyle=orthogonalEdgeStyle;rounded=0;orthogonalLoop=1;jettySize=auto;html=1;entryX=0.657;entryY=0.001;entryDx=0;entryDy=0;entryPerimeter=0;strokeWidth=4;" parent="1" target="cXRCFu6r_izY6FV5tgU2-1" edge="1">
          <mxGeometry relative="1" as="geometry">
            <mxPoint x="740" y="80" as="targetPoint" />
            <mxPoint x="659" y="10" as="sourcePoint" />
          </mxGeometry>
        </mxCell>
        <mxCell id="cXRCFu6r_izY6FV5tgU2-31" value="Приказ Минфина России №52н" style="edgeLabel;html=1;align=center;verticalAlign=middle;resizable=0;points=[];fontSize=16;labelBackgroundColor=none;rotation=-90;fontFamily=Lucida Console;" parent="cXRCFu6r_izY6FV5tgU2-30" vertex="1" connectable="0">
          <mxGeometry x="-0.2088" y="-3" relative="1" as="geometry">
            <mxPoint x="-36" y="31" as="offset" />
          </mxGeometry>
        </mxCell>
        <mxCell id="cXRCFu6r_izY6FV5tgU2-32" style="edgeStyle=orthogonalEdgeStyle;rounded=0;orthogonalLoop=1;jettySize=auto;html=1;entryX=0.775;entryY=-0.005;entryDx=0;entryDy=0;entryPerimeter=0;strokeWidth=4;" parent="1" target="cXRCFu6r_izY6FV5tgU2-1" edge="1">
          <mxGeometry relative="1" as="geometry">
            <mxPoint x="680" y="110" as="targetPoint" />
            <mxPoint x="720" y="10" as="sourcePoint" />
          </mxGeometry>
        </mxCell>
        <mxCell id="cXRCFu6r_izY6FV5tgU2-33" value="Закон РФ №2300-1 &quot;О&lt;br style=&quot;font-size: 16px;&quot;&gt;защите прав потребителей&quot;" style="edgeLabel;html=1;align=center;verticalAlign=middle;resizable=0;points=[];fontSize=16;fontFamily=Lucida Console;labelBackgroundColor=none;rotation=-90;" parent="cXRCFu6r_izY6FV5tgU2-32" vertex="1" connectable="0">
          <mxGeometry x="0.2219" y="-3" relative="1" as="geometry">
            <mxPoint x="-27" y="-34" as="offset" />
          </mxGeometry>
        </mxCell>
        <mxCell id="cXRCFu6r_izY6FV5tgU2-34" style="edgeStyle=orthogonalEdgeStyle;rounded=0;orthogonalLoop=1;jettySize=auto;html=1;entryX=0.929;entryY=-0.003;entryDx=0;entryDy=0;entryPerimeter=0;strokeWidth=4;" parent="1" target="cXRCFu6r_izY6FV5tgU2-1" edge="1">
          <mxGeometry relative="1" as="geometry">
            <mxPoint x="880" y="80" as="targetPoint" />
            <mxPoint x="799" y="10" as="sourcePoint" />
            <Array as="points">
              <mxPoint x="799" y="10" />
              <mxPoint x="799" y="160" />
              <mxPoint x="799" y="160" />
            </Array>
          </mxGeometry>
        </mxCell>
        <mxCell id="cXRCFu6r_izY6FV5tgU2-35" value="&quot;Основы законодательства &lt;br style=&quot;font-size: 16px;&quot;&gt;Российской Федерации о культуре&quot;" style="edgeLabel;html=1;align=center;verticalAlign=middle;resizable=0;points=[];fontSize=16;fontFamily=Lucida Console;labelBackgroundColor=none;rotation=-90;" parent="cXRCFu6r_izY6FV5tgU2-34" vertex="1" connectable="0">
          <mxGeometry x="-0.1943" y="-2" relative="1" as="geometry">
            <mxPoint x="-38" y="23" as="offset" />
          </mxGeometry>
        </mxCell>
        <mxCell id="cXRCFu6r_izY6FV5tgU2-36" style="edgeStyle=orthogonalEdgeStyle;rounded=0;orthogonalLoop=1;jettySize=auto;html=1;exitX=1;exitY=0.25;exitDx=0;exitDy=0;strokeWidth=4;" parent="1" source="cXRCFu6r_izY6FV5tgU2-1" edge="1">
          <mxGeometry relative="1" as="geometry">
            <mxPoint x="1150" y="364" as="targetPoint" />
          </mxGeometry>
        </mxCell>
        <mxCell id="cXRCFu6r_izY6FV5tgU2-39" value="Договор аренды" style="edgeLabel;html=1;align=center;verticalAlign=middle;resizable=0;points=[];fontSize=16;fontFamily=Lucida Console;labelBackgroundColor=none;" parent="cXRCFu6r_izY6FV5tgU2-36" vertex="1" connectable="0">
          <mxGeometry x="-0.5578" y="3" relative="1" as="geometry">
            <mxPoint x="92" y="-11" as="offset" />
          </mxGeometry>
        </mxCell>
        <mxCell id="cXRCFu6r_izY6FV5tgU2-37" style="edgeStyle=orthogonalEdgeStyle;rounded=0;orthogonalLoop=1;jettySize=auto;html=1;exitX=1;exitY=0.5;exitDx=0;exitDy=0;strokeWidth=4;" parent="1" source="cXRCFu6r_izY6FV5tgU2-1" edge="1">
          <mxGeometry relative="1" as="geometry">
            <mxPoint x="1150" y="414" as="targetPoint" />
          </mxGeometry>
        </mxCell>
        <mxCell id="cXRCFu6r_izY6FV5tgU2-40" value="Счет" style="edgeLabel;html=1;align=center;verticalAlign=middle;resizable=0;points=[];fontSize=16;fontFamily=Lucida Console;labelBackgroundColor=none;" parent="cXRCFu6r_izY6FV5tgU2-37" vertex="1" connectable="0">
          <mxGeometry x="-0.343" y="2" relative="1" as="geometry">
            <mxPoint x="58" y="-12" as="offset" />
          </mxGeometry>
        </mxCell>
        <mxCell id="cXRCFu6r_izY6FV5tgU2-38" style="edgeStyle=orthogonalEdgeStyle;rounded=0;orthogonalLoop=1;jettySize=auto;html=1;exitX=1;exitY=0.75;exitDx=0;exitDy=0;strokeWidth=4;" parent="1" source="cXRCFu6r_izY6FV5tgU2-1" edge="1">
          <mxGeometry relative="1" as="geometry">
            <mxPoint x="1150" y="464" as="targetPoint" />
          </mxGeometry>
        </mxCell>
        <mxCell id="cXRCFu6r_izY6FV5tgU2-41" value="Акт приема-передачи" style="edgeLabel;html=1;align=center;verticalAlign=middle;resizable=0;points=[];fontSize=16;fontFamily=Lucida Console;labelBackgroundColor=none;" parent="cXRCFu6r_izY6FV5tgU2-38" vertex="1" connectable="0">
          <mxGeometry x="-0.059" y="-1" relative="1" as="geometry">
            <mxPoint x="11" y="-15" as="offset" />
          </mxGeometry>
        </mxCell>
        <mxCell id="cXRCFu6r_izY6FV5tgU2-42" style="edgeStyle=orthogonalEdgeStyle;rounded=0;orthogonalLoop=1;jettySize=auto;html=1;entryX=0.386;entryY=0.997;entryDx=0;entryDy=0;strokeWidth=4;entryPerimeter=0;" parent="1" target="cXRCFu6r_izY6FV5tgU2-1" edge="1">
          <mxGeometry relative="1" as="geometry">
            <mxPoint x="540" y="630" as="targetPoint" />
            <mxPoint x="520" y="810" as="sourcePoint" />
            <Array as="points">
              <mxPoint x="520" y="810" />
              <mxPoint x="520" y="662" />
              <mxPoint x="519" y="662" />
            </Array>
          </mxGeometry>
        </mxCell>
        <mxCell id="cXRCFu6r_izY6FV5tgU2-45" value="Главный бухгалтер" style="edgeLabel;html=1;align=center;verticalAlign=middle;resizable=0;points=[];fontSize=16;fontFamily=Lucida Console;labelBackgroundColor=none;rotation=-90;" parent="cXRCFu6r_izY6FV5tgU2-42" vertex="1" connectable="0">
          <mxGeometry x="0.2907" y="1" relative="1" as="geometry">
            <mxPoint x="-38" y="41" as="offset" />
          </mxGeometry>
        </mxCell>
        <mxCell id="cXRCFu6r_izY6FV5tgU2-43" style="edgeStyle=orthogonalEdgeStyle;rounded=0;orthogonalLoop=1;jettySize=auto;html=1;entryX=0.621;entryY=1;entryDx=0;entryDy=0;strokeWidth=4;entryPerimeter=0;" parent="1" target="cXRCFu6r_izY6FV5tgU2-1" edge="1">
          <mxGeometry relative="1" as="geometry">
            <mxPoint x="720" y="740" as="targetPoint" />
            <mxPoint x="640" y="810" as="sourcePoint" />
            <Array as="points">
              <mxPoint x="640" y="810" />
              <mxPoint x="640" y="662" />
            </Array>
          </mxGeometry>
        </mxCell>
        <mxCell id="cXRCFu6r_izY6FV5tgU2-46" value="Начальник хозяйственного отдела" style="edgeLabel;html=1;align=center;verticalAlign=middle;resizable=0;points=[];fontSize=16;fontFamily=Lucida Console;labelBackgroundColor=none;rotation=-90;" parent="cXRCFu6r_izY6FV5tgU2-43" vertex="1" connectable="0">
          <mxGeometry x="0.2479" y="3" relative="1" as="geometry">
            <mxPoint x="-34" y="42" as="offset" />
          </mxGeometry>
        </mxCell>
        <mxCell id="cXRCFu6r_izY6FV5tgU2-44" style="edgeStyle=orthogonalEdgeStyle;rounded=0;orthogonalLoop=1;jettySize=auto;html=1;entryX=0.852;entryY=1;entryDx=0;entryDy=0;strokeWidth=4;entryPerimeter=0;" parent="1" target="cXRCFu6r_izY6FV5tgU2-1" edge="1">
          <mxGeometry relative="1" as="geometry">
            <mxPoint x="740" y="760" as="targetPoint" />
            <mxPoint x="760" y="810" as="sourcePoint" />
            <Array as="points">
              <mxPoint x="760" y="810" />
              <mxPoint x="760" y="662" />
            </Array>
          </mxGeometry>
        </mxCell>
        <mxCell id="cXRCFu6r_izY6FV5tgU2-47" value="Ведущий специалист&lt;div style=&quot;font-size: 16px;&quot;&gt;Главный специалист&lt;br style=&quot;font-size: 16px;&quot;&gt;&lt;/div&gt;&lt;div style=&quot;font-size: 16px;&quot;&gt;Специалист 2-ой категории&lt;/div&gt;" style="edgeLabel;html=1;align=center;verticalAlign=middle;resizable=0;points=[];fontSize=16;fontFamily=Lucida Console;labelBackgroundColor=none;rotation=-90;" parent="cXRCFu6r_izY6FV5tgU2-44" vertex="1" connectable="0">
          <mxGeometry x="0.3972" relative="1" as="geometry">
            <mxPoint x="-47" y="57" as="offset" />
          </mxGeometry>
        </mxCell>
        <mxCell id="XU4pxc0ogmi6flNhRIW0-2" style="edgeStyle=orthogonalEdgeStyle;rounded=0;orthogonalLoop=1;jettySize=auto;html=1;entryX=0.5;entryY=0;entryDx=0;entryDy=0;strokeWidth=4;" parent="1" target="cXRCFu6r_izY6FV5tgU2-1" edge="1">
          <mxGeometry relative="1" as="geometry">
            <mxPoint x="570" y="200" as="targetPoint" />
            <mxPoint x="578" y="10" as="sourcePoint" />
            <Array as="points">
              <mxPoint x="578" y="60" />
            </Array>
          </mxGeometry>
        </mxCell>
        <mxCell id="XU4pxc0ogmi6flNhRIW0-3" value="402-ФЗ &quot;О бухгалтерском учете&quot;" style="edgeLabel;html=1;align=center;verticalAlign=middle;resizable=0;points=[];fontSize=16;fontFamily=Lucida Console;labelBackgroundColor=none;rotation=-90;" parent="XU4pxc0ogmi6flNhRIW0-2" vertex="1" connectable="0">
          <mxGeometry x="0.0422" y="-3" relative="1" as="geometry">
            <mxPoint x="-35" y="-8" as="offset" />
          </mxGeometry>
        </mxCell>
        <mxCell id="tYO2u76P8i5UmXii4Xy1-1" style="edgeStyle=orthogonalEdgeStyle;rounded=0;orthogonalLoop=1;jettySize=auto;html=1;entryX=0.154;entryY=1.003;entryDx=0;entryDy=0;entryPerimeter=0;strokeWidth=4;" parent="1" target="cXRCFu6r_izY6FV5tgU2-1" edge="1">
          <mxGeometry relative="1" as="geometry">
            <mxPoint x="400" y="619.9999999999999" as="targetPoint" />
            <mxPoint x="399" y="810" as="sourcePoint" />
            <Array as="points">
              <mxPoint x="399" y="810" />
              <mxPoint x="399" y="662" />
              <mxPoint x="400" y="662" />
            </Array>
          </mxGeometry>
        </mxCell>
        <mxCell id="tYO2u76P8i5UmXii4Xy1-2" value="Директор" style="edgeLabel;html=1;align=center;verticalAlign=middle;resizable=0;points=[];fontSize=16;fontFamily=Lucida Console;labelBackgroundColor=none;rotation=-90;" parent="tYO2u76P8i5UmXii4Xy1-1" vertex="1" connectable="0">
          <mxGeometry x="0.0613" relative="1" as="geometry">
            <mxPoint x="-29" y="6" as="offset" />
          </mxGeometry>
        </mxCell>
        <mxCell id="cXRCFu6r_izY6FV5tgU2-1" value="&lt;font face=&quot;Lucida Console&quot; style=&quot;font-size: 25px;&quot;&gt;Предоставление производственного инвентаря в аренду&lt;/font&gt;" style="rounded=0;whiteSpace=wrap;html=1;strokeWidth=4;" parent="1" vertex="1">
          <mxGeometry x="320" y="314" width="516" height="200" as="geometry" />
        </mxCell>
      </root>
    </mxGraphModel>
  </diagram>
  <diagram id="tut-fehoOeGOVs1RfoLV" name="Декомпозиция (1-ый уровень)">
    <mxGraphModel dx="2333" dy="1258" grid="1" gridSize="10" guides="1" tooltips="1" connect="1" arrows="1" fold="1" page="1" pageScale="1" pageWidth="1169" pageHeight="827" math="0" shadow="0">
      <root>
        <mxCell id="0" />
        <mxCell id="1" parent="0" />
        <mxCell id="KAYnSliZGcp3xBShMQQ0-1" style="edgeStyle=orthogonalEdgeStyle;rounded=0;orthogonalLoop=1;jettySize=auto;html=1;entryX=0;entryY=0.25;entryDx=0;entryDy=0;fontSize=11;strokeWidth=2;" parent="1" target="2UAIDezuXPd8HjLeTTzg-1" edge="1">
          <mxGeometry relative="1" as="geometry">
            <mxPoint x="244" y="340" as="targetPoint" />
            <mxPoint x="10" y="340" as="sourcePoint" />
          </mxGeometry>
        </mxCell>
        <mxCell id="KAYnSliZGcp3xBShMQQ0-2" value="Идентификационные документы&lt;br style=&quot;font-size: 18px;&quot;&gt;(Паспортные данные, ЕГРЮЛ, ЕГРИП)" style="edgeLabel;html=1;align=center;verticalAlign=middle;resizable=0;points=[];fontSize=18;fontFamily=Lucida Console;labelBackgroundColor=none;" parent="KAYnSliZGcp3xBShMQQ0-1" vertex="1" connectable="0">
          <mxGeometry x="0.4017" y="-4" relative="1" as="geometry">
            <mxPoint x="-78" y="-34" as="offset" />
          </mxGeometry>
        </mxCell>
        <mxCell id="KAYnSliZGcp3xBShMQQ0-3" style="edgeStyle=orthogonalEdgeStyle;rounded=0;orthogonalLoop=1;jettySize=auto;html=1;entryX=0;entryY=0.75;entryDx=0;entryDy=0;strokeWidth=2;" parent="1" target="2UAIDezuXPd8HjLeTTzg-1" edge="1">
          <mxGeometry relative="1" as="geometry">
            <mxPoint x="124" y="390" as="targetPoint" />
            <mxPoint x="10" y="380" as="sourcePoint" />
          </mxGeometry>
        </mxCell>
        <mxCell id="KAYnSliZGcp3xBShMQQ0-4" value="Карточка сведений&lt;br&gt;(ИНН, банковский счет)" style="edgeLabel;html=1;align=center;verticalAlign=middle;resizable=0;points=[];fontSize=18;labelBackgroundColor=none;fontFamily=Lucida Console;" parent="KAYnSliZGcp3xBShMQQ0-3" vertex="1" connectable="0">
          <mxGeometry x="-0.2464" relative="1" as="geometry">
            <mxPoint x="36" y="-20" as="offset" />
          </mxGeometry>
        </mxCell>
        <mxCell id="h-yKNDRaf8KH9wiiivdk-1" style="edgeStyle=orthogonalEdgeStyle;rounded=0;orthogonalLoop=1;jettySize=auto;html=1;entryX=0;entryY=0;entryDx=0;entryDy=0;strokeWidth=2;" parent="1" target="2UAIDezuXPd8HjLeTTzg-1" edge="1">
          <mxGeometry relative="1" as="geometry">
            <mxPoint x="363.71428571428555" y="200" as="targetPoint" />
            <mxPoint x="364" y="10" as="sourcePoint" />
          </mxGeometry>
        </mxCell>
        <mxCell id="1J_blyVr1nFzuo3dxFdQ-1" value="&lt;span style=&quot;font-size: 18px;&quot;&gt;131-ФЗ &quot;Об общих принципах&lt;/span&gt;&lt;br style=&quot;font-size: 18px;&quot;&gt;&lt;span style=&quot;font-size: 18px;&quot;&gt;организации местного&lt;/span&gt;&lt;br style=&quot;font-size: 18px;&quot;&gt;&lt;span style=&quot;font-size: 18px;&quot;&gt;самоуправления в РФ&quot;&lt;/span&gt;" style="edgeLabel;html=1;align=center;verticalAlign=middle;resizable=0;points=[];fontSize=18;fontFamily=Lucida Console;labelBackgroundColor=none;rotation=-90;" parent="h-yKNDRaf8KH9wiiivdk-1" vertex="1" connectable="0">
          <mxGeometry x="-0.2635" y="-3" relative="1" as="geometry">
            <mxPoint x="-41" y="25" as="offset" />
          </mxGeometry>
        </mxCell>
        <mxCell id="1J_blyVr1nFzuo3dxFdQ-2" style="edgeStyle=orthogonalEdgeStyle;rounded=0;orthogonalLoop=1;jettySize=auto;html=1;entryX=0.25;entryY=0;entryDx=0;entryDy=0;strokeWidth=2;" parent="1" target="2UAIDezuXPd8HjLeTTzg-1" edge="1">
          <mxGeometry relative="1" as="geometry">
            <mxPoint x="423.6666666666665" y="120" as="targetPoint" />
            <mxPoint x="424" y="10" as="sourcePoint" />
          </mxGeometry>
        </mxCell>
        <mxCell id="ZKBSCZeKH9wcxNTCwb-y-1" value="&lt;span style=&quot;font-size: 18px;&quot;&gt;174-ФЗ &quot;Об автономных &lt;br style=&quot;font-size: 18px;&quot;&gt;учреждениях&quot;&lt;/span&gt;" style="edgeLabel;html=1;align=center;verticalAlign=middle;resizable=0;points=[];labelBackgroundColor=none;fontSize=18;fontFamily=Lucida Console;rotation=-90;" parent="1J_blyVr1nFzuo3dxFdQ-2" vertex="1" connectable="0">
          <mxGeometry x="-0.0507" y="-1" relative="1" as="geometry">
            <mxPoint x="-29" y="-7" as="offset" />
          </mxGeometry>
        </mxCell>
        <mxCell id="ZKBSCZeKH9wcxNTCwb-y-2" style="edgeStyle=orthogonalEdgeStyle;rounded=0;orthogonalLoop=1;jettySize=auto;html=1;entryX=0.5;entryY=0;entryDx=0;entryDy=0;strokeWidth=2;" parent="1" target="2UAIDezuXPd8HjLeTTzg-1" edge="1">
          <mxGeometry relative="1" as="geometry">
            <mxPoint x="550" y="120.00000000000011" as="targetPoint" />
            <mxPoint x="484" y="10" as="sourcePoint" />
          </mxGeometry>
        </mxCell>
        <mxCell id="RO2FOOi360hhwiXC26Q2-1" value="&lt;span style=&quot;font-size: 18px;&quot;&gt;402-ФЗ &quot;О бухгалтерском &lt;br&gt;учете&quot;&lt;/span&gt;" style="edgeLabel;html=1;align=center;verticalAlign=middle;resizable=0;points=[];fontSize=18;fontFamily=Lucida Console;labelBackgroundColor=none;rotation=-90;" parent="ZKBSCZeKH9wcxNTCwb-y-2" vertex="1" connectable="0">
          <mxGeometry x="0.052" y="4" relative="1" as="geometry">
            <mxPoint x="-28" y="-23" as="offset" />
          </mxGeometry>
        </mxCell>
        <mxCell id="RO2FOOi360hhwiXC26Q2-2" style="edgeStyle=orthogonalEdgeStyle;rounded=0;orthogonalLoop=1;jettySize=auto;html=1;entryX=0.75;entryY=0;entryDx=0;entryDy=0;strokeWidth=2;" parent="1" target="2UAIDezuXPd8HjLeTTzg-1" edge="1">
          <mxGeometry relative="1" as="geometry">
            <mxPoint x="650" y="110.00000000000011" as="targetPoint" />
            <mxPoint x="544" y="10" as="sourcePoint" />
          </mxGeometry>
        </mxCell>
        <mxCell id="T3KZcB0b5MhUQGZFkYB6-1" value="&lt;span style=&quot;font-size: 18px;&quot;&gt;Приказ Минфина России №52н&lt;/span&gt;" style="edgeLabel;html=1;align=center;verticalAlign=middle;resizable=0;points=[];fontSize=18;fontFamily=Lucida Console;labelBackgroundColor=none;rotation=-90;" parent="RO2FOOi360hhwiXC26Q2-2" vertex="1" connectable="0">
          <mxGeometry x="-0.1131" y="-1" relative="1" as="geometry">
            <mxPoint x="-23" y="2" as="offset" />
          </mxGeometry>
        </mxCell>
        <mxCell id="T3KZcB0b5MhUQGZFkYB6-2" style="edgeStyle=orthogonalEdgeStyle;rounded=0;orthogonalLoop=1;jettySize=auto;html=1;entryX=1;entryY=0;entryDx=0;entryDy=0;strokeWidth=2;" parent="1" target="2UAIDezuXPd8HjLeTTzg-1" edge="1">
          <mxGeometry relative="1" as="geometry">
            <mxPoint x="690" y="110.00000000000011" as="targetPoint" />
            <mxPoint x="604" y="10" as="sourcePoint" />
          </mxGeometry>
        </mxCell>
        <mxCell id="DlEO1xr41cRh18dBHS8r-1" value="&lt;span style=&quot;font-size: 18px;&quot;&gt;Закон РФ №2300-1 &quot;О&lt;/span&gt;&lt;br style=&quot;font-size: 18px;&quot;&gt;&lt;span style=&quot;font-size: 18px;&quot;&gt;защите прав потребителей&quot;&lt;/span&gt;" style="edgeLabel;html=1;align=center;verticalAlign=middle;resizable=0;points=[];fontSize=18;fontFamily=Lucida Console;labelBackgroundColor=none;rotation=-90;" parent="T3KZcB0b5MhUQGZFkYB6-2" vertex="1" connectable="0">
          <mxGeometry x="-0.2128" y="1" relative="1" as="geometry">
            <mxPoint x="-32" y="18" as="offset" />
          </mxGeometry>
        </mxCell>
        <mxCell id="DlEO1xr41cRh18dBHS8r-4" style="edgeStyle=orthogonalEdgeStyle;rounded=1;orthogonalLoop=1;jettySize=auto;html=1;exitX=1;exitY=0.5;exitDx=0;exitDy=0;entryX=0;entryY=0.25;entryDx=0;entryDy=0;strokeWidth=2;curved=0;" parent="1" source="2UAIDezuXPd8HjLeTTzg-1" target="2UAIDezuXPd8HjLeTTzg-2" edge="1">
          <mxGeometry relative="1" as="geometry" />
        </mxCell>
        <mxCell id="DlEO1xr41cRh18dBHS8r-5" value="Данные заказчика" style="edgeLabel;html=1;align=center;verticalAlign=middle;resizable=0;points=[];fontSize=18;fontFamily=Lucida Console;labelBackgroundColor=none;" parent="DlEO1xr41cRh18dBHS8r-4" vertex="1" connectable="0">
          <mxGeometry x="-0.2136" y="2" relative="1" as="geometry">
            <mxPoint x="-79" y="59" as="offset" />
          </mxGeometry>
        </mxCell>
        <mxCell id="y2uDlhk-yYiVw4jbew42-2" style="edgeStyle=orthogonalEdgeStyle;rounded=1;orthogonalLoop=1;jettySize=auto;html=1;exitX=0.5;exitY=1;exitDx=0;exitDy=0;entryX=0.5;entryY=1;entryDx=0;entryDy=0;strokeWidth=2;curved=0;" edge="1" parent="1" source="2UAIDezuXPd8HjLeTTzg-1" target="2UAIDezuXPd8HjLeTTzg-2">
          <mxGeometry relative="1" as="geometry">
            <Array as="points">
              <mxPoint x="484" y="560" />
              <mxPoint x="820" y="560" />
            </Array>
          </mxGeometry>
        </mxCell>
        <mxCell id="y2uDlhk-yYiVw4jbew42-7" style="edgeStyle=orthogonalEdgeStyle;rounded=1;orthogonalLoop=1;jettySize=auto;html=1;exitX=0.5;exitY=1;exitDx=0;exitDy=0;entryX=0.25;entryY=1;entryDx=0;entryDy=0;strokeWidth=2;curved=0;" edge="1" parent="1" source="2UAIDezuXPd8HjLeTTzg-1" target="2UAIDezuXPd8HjLeTTzg-4">
          <mxGeometry relative="1" as="geometry">
            <Array as="points">
              <mxPoint x="484" y="740" />
              <mxPoint x="1510" y="740" />
            </Array>
          </mxGeometry>
        </mxCell>
        <mxCell id="2UAIDezuXPd8HjLeTTzg-1" value="Регистрация заказчика" style="rounded=0;whiteSpace=wrap;html=1;strokeWidth=2;fontSize=18;fontFamily=Lucida Console;" parent="1" vertex="1">
          <mxGeometry x="364" y="320" width="240" height="80" as="geometry" />
        </mxCell>
        <mxCell id="DlEO1xr41cRh18dBHS8r-11" style="edgeStyle=orthogonalEdgeStyle;rounded=0;orthogonalLoop=1;jettySize=auto;html=1;entryX=0;entryY=0.75;entryDx=0;entryDy=0;strokeWidth=2;" parent="1" target="2UAIDezuXPd8HjLeTTzg-2" edge="1">
          <mxGeometry relative="1" as="geometry">
            <mxPoint x="280" y="550" as="targetPoint" />
            <mxPoint x="10" y="460" as="sourcePoint" />
            <Array as="points">
              <mxPoint x="10" y="460" />
            </Array>
          </mxGeometry>
        </mxCell>
        <mxCell id="DlEO1xr41cRh18dBHS8r-12" value="Заявка заказчика" style="edgeLabel;html=1;align=center;verticalAlign=middle;resizable=0;points=[];fontSize=18;fontFamily=Lucida Console;labelBackgroundColor=none;" parent="DlEO1xr41cRh18dBHS8r-11" vertex="1" connectable="0">
          <mxGeometry x="-0.2472" relative="1" as="geometry">
            <mxPoint x="-101" y="-20" as="offset" />
          </mxGeometry>
        </mxCell>
        <mxCell id="wE4nHWAnmP9ZFNBEIBeO-2" style="edgeStyle=orthogonalEdgeStyle;rounded=0;orthogonalLoop=1;jettySize=auto;html=1;exitX=1;exitY=0.25;exitDx=0;exitDy=0;strokeWidth=2;" parent="1" source="2UAIDezuXPd8HjLeTTzg-2" edge="1">
          <mxGeometry relative="1" as="geometry">
            <mxPoint x="1910" y="420" as="targetPoint" />
            <Array as="points">
              <mxPoint x="1900" y="420" />
            </Array>
          </mxGeometry>
        </mxCell>
        <mxCell id="wE4nHWAnmP9ZFNBEIBeO-3" value="Договор аренды" style="edgeLabel;html=1;align=center;verticalAlign=middle;resizable=0;points=[];fontSize=18;fontFamily=Lucida Console;labelBackgroundColor=none;" parent="wE4nHWAnmP9ZFNBEIBeO-2" vertex="1" connectable="0">
          <mxGeometry x="0.6638" y="5" relative="1" as="geometry">
            <mxPoint x="77" y="-15" as="offset" />
          </mxGeometry>
        </mxCell>
        <mxCell id="fUmBWVslTRo99VLzZsdJ-4" style="edgeStyle=orthogonalEdgeStyle;rounded=0;orthogonalLoop=1;jettySize=auto;html=1;entryX=0;entryY=0;entryDx=0;entryDy=0;strokeWidth=2;" parent="1" target="2UAIDezuXPd8HjLeTTzg-3" edge="1">
          <mxGeometry relative="1" as="geometry">
            <mxPoint x="611" y="190" as="targetPoint" />
            <mxPoint x="1040" y="11" as="sourcePoint" />
          </mxGeometry>
        </mxCell>
        <mxCell id="pa25iNcoJzOC2g-uuvaW-1" value="&lt;span style=&quot;font-size: 18px;&quot;&gt;7-ФЗ &quot;О некоммерческих&lt;/span&gt;&lt;br style=&quot;font-size: 18px;&quot;&gt;&lt;span style=&quot;font-size: 18px;&quot;&gt;организациях&quot;&lt;/span&gt;" style="edgeLabel;html=1;align=center;verticalAlign=middle;resizable=0;points=[];fontSize=18;fontFamily=Lucida Console;labelBackgroundColor=none;rotation=-90;" parent="fUmBWVslTRo99VLzZsdJ-4" vertex="1" connectable="0">
          <mxGeometry x="-0.1445" y="2" relative="1" as="geometry">
            <mxPoint x="-41" y="-19" as="offset" />
          </mxGeometry>
        </mxCell>
        <mxCell id="fUmBWVslTRo99VLzZsdJ-5" style="edgeStyle=orthogonalEdgeStyle;rounded=0;orthogonalLoop=1;jettySize=auto;html=1;strokeWidth=2;entryX=0.176;entryY=-0.004;entryDx=0;entryDy=0;entryPerimeter=0;" parent="1" target="2UAIDezuXPd8HjLeTTzg-3" edge="1">
          <mxGeometry relative="1" as="geometry">
            <mxPoint x="1091" y="490" as="targetPoint" />
            <mxPoint x="1091" y="10" as="sourcePoint" />
            <Array as="points">
              <mxPoint x="1091" y="10" />
            </Array>
          </mxGeometry>
        </mxCell>
        <mxCell id="pa25iNcoJzOC2g-uuvaW-2" value="&lt;span style=&quot;font-size: 18px;&quot;&gt;131-ФЗ &quot;Об общих принципах&amp;nbsp;&lt;/span&gt;&lt;span style=&quot;font-size: 18px;&quot;&gt;организации&lt;br&gt;&lt;/span&gt;&lt;span style=&quot;font-size: 18px;&quot;&gt;местного&amp;nbsp;&lt;/span&gt;&lt;span style=&quot;font-size: 18px;&quot;&gt;самоуправления в РФ&quot;&lt;/span&gt;" style="edgeLabel;html=1;align=center;verticalAlign=middle;resizable=0;points=[];fontSize=18;fontFamily=Lucida Console;labelBackgroundColor=none;rotation=-90;" parent="fUmBWVslTRo99VLzZsdJ-5" vertex="1" connectable="0">
          <mxGeometry x="-0.0681" y="3" relative="1" as="geometry">
            <mxPoint x="-29" y="-41" as="offset" />
          </mxGeometry>
        </mxCell>
        <mxCell id="fUmBWVslTRo99VLzZsdJ-6" style="edgeStyle=orthogonalEdgeStyle;rounded=0;orthogonalLoop=1;jettySize=auto;html=1;entryX=0.347;entryY=-0.002;entryDx=0;entryDy=0;entryPerimeter=0;strokeWidth=2;" parent="1" target="2UAIDezuXPd8HjLeTTzg-3" edge="1">
          <mxGeometry relative="1" as="geometry">
            <mxPoint x="751" y="300" as="targetPoint" />
            <mxPoint x="1141" y="10" as="sourcePoint" />
            <Array as="points">
              <mxPoint x="1141" y="10" />
            </Array>
          </mxGeometry>
        </mxCell>
        <mxCell id="pa25iNcoJzOC2g-uuvaW-3" value="&lt;span style=&quot;font-size: 18px;&quot;&gt;174-ФЗ &quot;Об автономных&lt;/span&gt;&lt;br style=&quot;font-size: 18px;&quot;&gt;&lt;span style=&quot;font-size: 18px;&quot;&gt;учреждениях&quot;&lt;/span&gt;" style="edgeLabel;html=1;align=center;verticalAlign=middle;resizable=0;points=[];fontSize=18;fontFamily=Lucida Console;labelBackgroundColor=none;rotation=-90;" parent="fUmBWVslTRo99VLzZsdJ-6" vertex="1" connectable="0">
          <mxGeometry x="-0.2298" relative="1" as="geometry">
            <mxPoint x="-23" y="3" as="offset" />
          </mxGeometry>
        </mxCell>
        <mxCell id="fUmBWVslTRo99VLzZsdJ-7" style="edgeStyle=orthogonalEdgeStyle;rounded=0;orthogonalLoop=1;jettySize=auto;html=1;entryX=0.5;entryY=0;entryDx=0;entryDy=0;strokeWidth=2;" parent="1" target="2UAIDezuXPd8HjLeTTzg-3" edge="1">
          <mxGeometry relative="1" as="geometry">
            <mxPoint x="741.1282051282051" y="330" as="targetPoint" />
            <mxPoint x="1186" y="10" as="sourcePoint" />
            <Array as="points">
              <mxPoint x="1186" y="10" />
            </Array>
          </mxGeometry>
        </mxCell>
        <mxCell id="pa25iNcoJzOC2g-uuvaW-4" value="&lt;span style=&quot;font-size: 18px;&quot;&gt;402-ФЗ &quot;О бухгалтерском учете&quot;&lt;/span&gt;" style="edgeLabel;html=1;align=center;verticalAlign=middle;resizable=0;points=[];fontSize=18;fontFamily=Lucida Console;labelBackgroundColor=none;rotation=-90;" parent="fUmBWVslTRo99VLzZsdJ-7" vertex="1" connectable="0">
          <mxGeometry x="-0.2245" y="1" relative="1" as="geometry">
            <mxPoint x="-25" y="2" as="offset" />
          </mxGeometry>
        </mxCell>
        <mxCell id="fUmBWVslTRo99VLzZsdJ-8" style="edgeStyle=orthogonalEdgeStyle;rounded=0;orthogonalLoop=1;jettySize=auto;html=1;entryX=0.675;entryY=0;entryDx=0;entryDy=0;entryPerimeter=0;strokeWidth=2;" parent="1" target="2UAIDezuXPd8HjLeTTzg-3" edge="1">
          <mxGeometry relative="1" as="geometry">
            <mxPoint x="831" y="320" as="targetPoint" />
            <mxPoint x="1236" y="10" as="sourcePoint" />
            <Array as="points">
              <mxPoint x="1236" y="10" />
              <mxPoint x="1236" y="206" />
            </Array>
          </mxGeometry>
        </mxCell>
        <mxCell id="PWIUhTi94zm84w4v-8U8-1" value="&lt;span style=&quot;font-size: 18px;&quot;&gt;Приказ Минфина России №52н&lt;/span&gt;" style="edgeLabel;html=1;align=center;verticalAlign=middle;resizable=0;points=[];fontSize=18;fontFamily=Lucida Console;labelBackgroundColor=none;rotation=-90;" parent="fUmBWVslTRo99VLzZsdJ-8" vertex="1" connectable="0">
          <mxGeometry x="-0.1369" y="-2" relative="1" as="geometry">
            <mxPoint x="-25" y="-20" as="offset" />
          </mxGeometry>
        </mxCell>
        <mxCell id="fUmBWVslTRo99VLzZsdJ-9" style="edgeStyle=orthogonalEdgeStyle;rounded=0;orthogonalLoop=1;jettySize=auto;html=1;entryX=0.843;entryY=0;entryDx=0;entryDy=0;entryPerimeter=0;strokeWidth=2;" parent="1" target="2UAIDezuXPd8HjLeTTzg-3" edge="1">
          <mxGeometry relative="1" as="geometry">
            <mxPoint x="931" y="300" as="targetPoint" />
            <mxPoint x="1285" y="10" as="sourcePoint" />
            <Array as="points">
              <mxPoint x="1285" y="10" />
            </Array>
          </mxGeometry>
        </mxCell>
        <mxCell id="PWIUhTi94zm84w4v-8U8-2" value="&lt;span style=&quot;font-size: 18px;&quot;&gt;Закон РФ №2300-1 &quot;О&lt;/span&gt;&lt;br style=&quot;font-size: 18px;&quot;&gt;&lt;span style=&quot;font-size: 18px;&quot;&gt;защите прав потребителей&quot;&lt;/span&gt;" style="edgeLabel;html=1;align=center;verticalAlign=middle;resizable=0;points=[];fontSize=18;fontFamily=Lucida Console;labelBackgroundColor=none;rotation=-90;" parent="fUmBWVslTRo99VLzZsdJ-9" vertex="1" connectable="0">
          <mxGeometry x="-0.2245" y="-1" relative="1" as="geometry">
            <mxPoint x="-23" y="2" as="offset" />
          </mxGeometry>
        </mxCell>
        <mxCell id="fUmBWVslTRo99VLzZsdJ-11" style="edgeStyle=orthogonalEdgeStyle;rounded=0;orthogonalLoop=1;jettySize=auto;html=1;entryX=1;entryY=0;entryDx=0;entryDy=0;strokeWidth=2;" parent="1" target="2UAIDezuXPd8HjLeTTzg-3" edge="1">
          <mxGeometry relative="1" as="geometry">
            <mxPoint x="931" y="280" as="targetPoint" />
            <mxPoint x="1331" y="10" as="sourcePoint" />
            <Array as="points">
              <mxPoint x="1331" y="10" />
            </Array>
          </mxGeometry>
        </mxCell>
        <mxCell id="b26XSoDIVP5lokRfiwhf-1" value="&lt;span style=&quot;font-size: 18px;&quot;&gt;&quot;Основы законодательства&lt;/span&gt;&lt;br style=&quot;font-size: 18px;&quot;&gt;&lt;span style=&quot;font-size: 18px;&quot;&gt;Российской Федерации о культуре&quot;&lt;/span&gt;" style="edgeLabel;html=1;align=center;verticalAlign=middle;resizable=0;points=[];fontSize=18;fontFamily=Lucida Console;labelBackgroundColor=none;rotation=-90;" parent="fUmBWVslTRo99VLzZsdJ-11" vertex="1" connectable="0">
          <mxGeometry x="-0.2621" relative="1" as="geometry">
            <mxPoint x="-24" y="14" as="offset" />
          </mxGeometry>
        </mxCell>
        <mxCell id="b26XSoDIVP5lokRfiwhf-2" style="edgeStyle=orthogonalEdgeStyle;rounded=1;orthogonalLoop=1;jettySize=auto;html=1;exitX=1;exitY=0.75;exitDx=0;exitDy=0;entryX=0;entryY=0.5;entryDx=0;entryDy=0;strokeWidth=2;curved=0;" parent="1" source="2UAIDezuXPd8HjLeTTzg-2" target="2UAIDezuXPd8HjLeTTzg-3" edge="1">
          <mxGeometry relative="1" as="geometry" />
        </mxCell>
        <mxCell id="b26XSoDIVP5lokRfiwhf-6" value="Составленный &lt;br style=&quot;font-size: 18px;&quot;&gt;договор аренды" style="edgeLabel;html=1;align=center;verticalAlign=middle;resizable=0;points=[];fontSize=18;fontFamily=Lucida Console;labelBackgroundColor=none;" parent="b26XSoDIVP5lokRfiwhf-2" vertex="1" connectable="0">
          <mxGeometry x="-0.099" relative="1" as="geometry">
            <mxPoint x="-60" y="83" as="offset" />
          </mxGeometry>
        </mxCell>
        <mxCell id="b26XSoDIVP5lokRfiwhf-4" style="edgeStyle=orthogonalEdgeStyle;rounded=0;orthogonalLoop=1;jettySize=auto;html=1;entryX=0.5;entryY=1;entryDx=0;entryDy=0;strokeWidth=2;" parent="1" target="2UAIDezuXPd8HjLeTTzg-1" edge="1">
          <mxGeometry relative="1" as="geometry">
            <mxPoint x="960" y="700" as="targetPoint" />
            <mxPoint x="484" y="810" as="sourcePoint" />
            <Array as="points">
              <mxPoint x="484" y="810" />
            </Array>
          </mxGeometry>
        </mxCell>
        <mxCell id="b26XSoDIVP5lokRfiwhf-5" value="Начальник хозяйственного отдела" style="edgeLabel;html=1;align=center;verticalAlign=middle;resizable=0;points=[];fontSize=18;fontFamily=Lucida Console;labelBackgroundColor=none;" parent="b26XSoDIVP5lokRfiwhf-4" vertex="1" connectable="0">
          <mxGeometry x="0.3169" y="-1" relative="1" as="geometry">
            <mxPoint x="175" y="250" as="offset" />
          </mxGeometry>
        </mxCell>
        <mxCell id="b26XSoDIVP5lokRfiwhf-7" style="edgeStyle=orthogonalEdgeStyle;rounded=0;orthogonalLoop=1;jettySize=auto;html=1;entryX=0.5;entryY=0;entryDx=0;entryDy=0;strokeWidth=2;" parent="1" target="2UAIDezuXPd8HjLeTTzg-2" edge="1">
          <mxGeometry relative="1" as="geometry">
            <mxPoint x="840" y="170" as="targetPoint" />
            <mxPoint x="820" y="10" as="sourcePoint" />
          </mxGeometry>
        </mxCell>
        <mxCell id="v6y4CA4gG0J5MYWAcDff-1" value="&lt;span style=&quot;font-size: 18px;&quot;&gt;402-ФЗ &quot;О бухгалтерском учете&quot;&lt;/span&gt;" style="edgeLabel;html=1;align=center;verticalAlign=middle;resizable=0;points=[];fontSize=18;fontFamily=Lucida Console;labelBackgroundColor=none;rotation=-90;" parent="b26XSoDIVP5lokRfiwhf-7" vertex="1" connectable="0">
          <mxGeometry x="-0.1883" y="-6" relative="1" as="geometry">
            <mxPoint x="-14" y="32" as="offset" />
          </mxGeometry>
        </mxCell>
        <mxCell id="2UAIDezuXPd8HjLeTTzg-2" value="Выбор оборудования" style="rounded=0;whiteSpace=wrap;html=1;strokeWidth=2;fontSize=18;fontFamily=Lucida Console;" parent="1" vertex="1">
          <mxGeometry x="720" y="400" width="200" height="80" as="geometry" />
        </mxCell>
        <mxCell id="v6y4CA4gG0J5MYWAcDff-4" style="edgeStyle=orthogonalEdgeStyle;rounded=0;orthogonalLoop=1;jettySize=auto;html=1;exitX=1;exitY=0.25;exitDx=0;exitDy=0;strokeWidth=2;" parent="1" source="2UAIDezuXPd8HjLeTTzg-3" edge="1">
          <mxGeometry relative="1" as="geometry">
            <mxPoint x="1910" y="540.2105263157896" as="targetPoint" />
          </mxGeometry>
        </mxCell>
        <mxCell id="v6y4CA4gG0J5MYWAcDff-5" value="Счет" style="edgeLabel;html=1;align=center;verticalAlign=middle;resizable=0;points=[];fontSize=18;fontFamily=Lucida Console;labelBackgroundColor=none;" parent="v6y4CA4gG0J5MYWAcDff-4" vertex="1" connectable="0">
          <mxGeometry x="-0.2519" relative="1" as="geometry">
            <mxPoint x="272" y="-20" as="offset" />
          </mxGeometry>
        </mxCell>
        <mxCell id="v6y4CA4gG0J5MYWAcDff-6" style="edgeStyle=orthogonalEdgeStyle;rounded=1;orthogonalLoop=1;jettySize=auto;html=1;exitX=1;exitY=0.75;exitDx=0;exitDy=0;entryX=0;entryY=0.5;entryDx=0;entryDy=0;curved=0;strokeWidth=2;" parent="1" source="2UAIDezuXPd8HjLeTTzg-3" target="2UAIDezuXPd8HjLeTTzg-4" edge="1">
          <mxGeometry relative="1" as="geometry" />
        </mxCell>
        <mxCell id="v6y4CA4gG0J5MYWAcDff-7" value="Итоговые документы&lt;br style=&quot;font-size: 18px;&quot;&gt;(договор аренды, счет)" style="edgeLabel;html=1;align=center;verticalAlign=middle;resizable=0;points=[];fontSize=18;labelBackgroundColor=none;fontFamily=Lucida Console;" parent="v6y4CA4gG0J5MYWAcDff-6" vertex="1" connectable="0">
          <mxGeometry x="-0.032" y="2" relative="1" as="geometry">
            <mxPoint x="-72" y="83" as="offset" />
          </mxGeometry>
        </mxCell>
        <mxCell id="VW5FG_p1A-yDZYqBXanY-1" style="edgeStyle=orthogonalEdgeStyle;rounded=0;orthogonalLoop=1;jettySize=auto;html=1;entryX=0.75;entryY=1;entryDx=0;entryDy=0;strokeWidth=2;" parent="1" target="2UAIDezuXPd8HjLeTTzg-3" edge="1">
          <mxGeometry relative="1" as="geometry">
            <mxPoint x="1257.9411764705883" y="800" as="targetPoint" />
            <mxPoint x="1258" y="810" as="sourcePoint" />
          </mxGeometry>
        </mxCell>
        <mxCell id="y2uDlhk-yYiVw4jbew42-6" value="Главный бухгалтер" style="edgeLabel;html=1;align=center;verticalAlign=middle;resizable=0;points=[];fontSize=18;fontFamily=Lucida Console;labelBackgroundColor=none;" vertex="1" connectable="0" parent="VW5FG_p1A-yDZYqBXanY-1">
          <mxGeometry x="0.1779" relative="1" as="geometry">
            <mxPoint x="102" y="104" as="offset" />
          </mxGeometry>
        </mxCell>
        <mxCell id="y2uDlhk-yYiVw4jbew42-3" style="edgeStyle=orthogonalEdgeStyle;rounded=0;orthogonalLoop=1;jettySize=auto;html=1;entryX=0.25;entryY=1;entryDx=0;entryDy=0;strokeWidth=2;" edge="1" parent="1" target="2UAIDezuXPd8HjLeTTzg-3">
          <mxGeometry relative="1" as="geometry">
            <mxPoint x="1130" y="660" as="targetPoint" />
            <mxPoint x="1113" y="810" as="sourcePoint" />
          </mxGeometry>
        </mxCell>
        <mxCell id="y2uDlhk-yYiVw4jbew42-5" value="Директор" style="edgeLabel;html=1;align=center;verticalAlign=middle;resizable=0;points=[];fontSize=18;fontFamily=Lucida Console;labelBackgroundColor=none;" vertex="1" connectable="0" parent="y2uDlhk-yYiVw4jbew42-3">
          <mxGeometry x="-0.5616" y="-3" relative="1" as="geometry">
            <mxPoint x="53" y="26" as="offset" />
          </mxGeometry>
        </mxCell>
        <mxCell id="y2uDlhk-yYiVw4jbew42-8" style="edgeStyle=orthogonalEdgeStyle;rounded=1;orthogonalLoop=1;jettySize=auto;html=1;exitX=0.75;exitY=1;exitDx=0;exitDy=0;entryX=0.5;entryY=1;entryDx=0;entryDy=0;strokeWidth=2;curved=0;" edge="1" parent="1" source="2UAIDezuXPd8HjLeTTzg-3" target="2UAIDezuXPd8HjLeTTzg-4">
          <mxGeometry relative="1" as="geometry">
            <Array as="points">
              <mxPoint x="1258" y="770" />
              <mxPoint x="1570" y="770" />
            </Array>
          </mxGeometry>
        </mxCell>
        <mxCell id="2UAIDezuXPd8HjLeTTzg-3" value="Оформление документов" style="rounded=0;whiteSpace=wrap;html=1;strokeWidth=2;fontSize=18;fontFamily=Lucida Console;" parent="1" vertex="1">
          <mxGeometry x="1040" y="520" width="291" height="80" as="geometry" />
        </mxCell>
        <mxCell id="v6y4CA4gG0J5MYWAcDff-8" style="edgeStyle=orthogonalEdgeStyle;rounded=0;orthogonalLoop=1;jettySize=auto;html=1;exitX=1;exitY=0.5;exitDx=0;exitDy=0;fontSize=11;strokeWidth=2;" parent="1" source="2UAIDezuXPd8HjLeTTzg-4" edge="1">
          <mxGeometry relative="1" as="geometry">
            <mxPoint x="1920" y="680.2105263157896" as="targetPoint" />
          </mxGeometry>
        </mxCell>
        <mxCell id="v6y4CA4gG0J5MYWAcDff-9" value="Акт приема-передачи" style="edgeLabel;html=1;align=center;verticalAlign=middle;resizable=0;points=[];fontSize=18;labelBackgroundColor=none;fontFamily=Lucida Console;" parent="v6y4CA4gG0J5MYWAcDff-8" vertex="1" connectable="0">
          <mxGeometry x="0.3107" y="1" relative="1" as="geometry">
            <mxPoint x="-41" y="-20" as="offset" />
          </mxGeometry>
        </mxCell>
        <mxCell id="v6y4CA4gG0J5MYWAcDff-11" style="edgeStyle=orthogonalEdgeStyle;rounded=0;orthogonalLoop=1;jettySize=auto;html=1;entryX=0.75;entryY=1;entryDx=0;entryDy=0;strokeWidth=2;" parent="1" target="2UAIDezuXPd8HjLeTTzg-4" edge="1">
          <mxGeometry relative="1" as="geometry">
            <mxPoint x="1730" y="780" as="targetPoint" />
            <mxPoint x="1630" y="810" as="sourcePoint" />
          </mxGeometry>
        </mxCell>
        <mxCell id="v6y4CA4gG0J5MYWAcDff-12" value="Ведущий специалист&lt;br style=&quot;font-size: 18px;&quot;&gt;Главный специалист&lt;br style=&quot;font-size: 18px;&quot;&gt;Специалист 2-ой категории" style="edgeLabel;html=1;align=center;verticalAlign=middle;resizable=0;points=[];fontSize=18;labelBackgroundColor=none;fontFamily=Lucida Console;" parent="v6y4CA4gG0J5MYWAcDff-11" vertex="1" connectable="0">
          <mxGeometry x="-0.2012" y="-5" relative="1" as="geometry">
            <mxPoint x="145" y="-4" as="offset" />
          </mxGeometry>
        </mxCell>
        <mxCell id="v6y4CA4gG0J5MYWAcDff-13" style="edgeStyle=orthogonalEdgeStyle;rounded=0;orthogonalLoop=1;jettySize=auto;html=1;entryX=0;entryY=0;entryDx=0;entryDy=0;strokeWidth=2;" parent="1" target="2UAIDezuXPd8HjLeTTzg-4" edge="1">
          <mxGeometry relative="1" as="geometry">
            <mxPoint x="1480" y="310" as="targetPoint" />
            <mxPoint x="1450" y="10" as="sourcePoint" />
          </mxGeometry>
        </mxCell>
        <mxCell id="v6y4CA4gG0J5MYWAcDff-14" value="&lt;span style=&quot;font-size: 18px;&quot;&gt;131-ФЗ &quot;Об общих принципах&lt;/span&gt;&lt;br style=&quot;font-size: 18px;&quot;&gt;&lt;span style=&quot;font-size: 18px;&quot;&gt;организации местного&lt;/span&gt;&lt;br style=&quot;font-size: 18px;&quot;&gt;&lt;span style=&quot;font-size: 18px;&quot;&gt;самоуправления в РФ&quot;&lt;/span&gt;" style="edgeLabel;html=1;align=center;verticalAlign=middle;resizable=0;points=[];fontSize=18;labelBackgroundColor=none;fontFamily=Lucida Console;rotation=-90;" parent="v6y4CA4gG0J5MYWAcDff-13" vertex="1" connectable="0">
          <mxGeometry x="-0.38" y="3" relative="1" as="geometry">
            <mxPoint x="-43" as="offset" />
          </mxGeometry>
        </mxCell>
        <mxCell id="v6y4CA4gG0J5MYWAcDff-15" style="edgeStyle=orthogonalEdgeStyle;rounded=0;orthogonalLoop=1;jettySize=auto;html=1;entryX=0.25;entryY=0;entryDx=0;entryDy=0;strokeWidth=2;" parent="1" target="2UAIDezuXPd8HjLeTTzg-4" edge="1">
          <mxGeometry relative="1" as="geometry">
            <mxPoint x="1570" y="230" as="targetPoint" />
            <mxPoint x="1510" y="10" as="sourcePoint" />
          </mxGeometry>
        </mxCell>
        <mxCell id="v6y4CA4gG0J5MYWAcDff-16" value="&lt;span style=&quot;font-size: 18px;&quot;&gt;174-ФЗ &quot;Об автономных&lt;/span&gt;&lt;br style=&quot;font-size: 18px;&quot;&gt;&lt;span style=&quot;font-size: 18px;&quot;&gt;учреждениях&quot;&lt;/span&gt;" style="edgeLabel;html=1;align=center;verticalAlign=middle;resizable=0;points=[];fontSize=18;labelBackgroundColor=none;fontFamily=Lucida Console;rotation=-90;" parent="v6y4CA4gG0J5MYWAcDff-15" vertex="1" connectable="0">
          <mxGeometry x="-0.4534" y="3" relative="1" as="geometry">
            <mxPoint x="-33" y="17" as="offset" />
          </mxGeometry>
        </mxCell>
        <mxCell id="v6y4CA4gG0J5MYWAcDff-17" style="edgeStyle=orthogonalEdgeStyle;rounded=0;orthogonalLoop=1;jettySize=auto;html=1;entryX=0.5;entryY=0;entryDx=0;entryDy=0;strokeWidth=2;" parent="1" target="2UAIDezuXPd8HjLeTTzg-4" edge="1">
          <mxGeometry relative="1" as="geometry">
            <mxPoint x="1700" y="170" as="targetPoint" />
            <mxPoint x="1570" y="10" as="sourcePoint" />
          </mxGeometry>
        </mxCell>
        <mxCell id="v6y4CA4gG0J5MYWAcDff-18" value="&lt;span style=&quot;font-size: 18px;&quot;&gt;402-ФЗ &quot;О бухгалтерском&lt;/span&gt;&lt;br style=&quot;font-size: 18px;&quot;&gt;&lt;span style=&quot;font-size: 18px;&quot;&gt;учете&quot;&lt;/span&gt;" style="edgeLabel;html=1;align=center;verticalAlign=middle;resizable=0;points=[];fontSize=18;fontFamily=Lucida Console;labelBackgroundColor=none;rotation=-90;" parent="v6y4CA4gG0J5MYWAcDff-17" vertex="1" connectable="0">
          <mxGeometry x="-0.5569" y="3" relative="1" as="geometry">
            <mxPoint x="-33" y="50" as="offset" />
          </mxGeometry>
        </mxCell>
        <mxCell id="v6y4CA4gG0J5MYWAcDff-19" style="edgeStyle=orthogonalEdgeStyle;rounded=0;orthogonalLoop=1;jettySize=auto;html=1;entryX=0.75;entryY=0;entryDx=0;entryDy=0;strokeWidth=2;" parent="1" target="2UAIDezuXPd8HjLeTTzg-4" edge="1">
          <mxGeometry relative="1" as="geometry">
            <mxPoint x="1730" y="160" as="targetPoint" />
            <mxPoint x="1630" y="10" as="sourcePoint" />
          </mxGeometry>
        </mxCell>
        <mxCell id="v6y4CA4gG0J5MYWAcDff-20" value="&lt;span style=&quot;font-size: 18px;&quot;&gt;Приказ Минфина России №52н&lt;/span&gt;" style="edgeLabel;html=1;align=center;verticalAlign=middle;resizable=0;points=[];fontSize=18;labelBackgroundColor=none;fontFamily=Lucida Console;rotation=-90;" parent="v6y4CA4gG0J5MYWAcDff-19" vertex="1" connectable="0">
          <mxGeometry x="-0.4601" relative="1" as="geometry">
            <mxPoint x="-30" y="19" as="offset" />
          </mxGeometry>
        </mxCell>
        <mxCell id="v6y4CA4gG0J5MYWAcDff-21" style="edgeStyle=orthogonalEdgeStyle;rounded=0;orthogonalLoop=1;jettySize=auto;html=1;entryX=1;entryY=0;entryDx=0;entryDy=0;strokeWidth=2;" parent="1" target="2UAIDezuXPd8HjLeTTzg-4" edge="1">
          <mxGeometry relative="1" as="geometry">
            <mxPoint x="1770" y="170" as="targetPoint" />
            <mxPoint x="1690" y="10" as="sourcePoint" />
          </mxGeometry>
        </mxCell>
        <mxCell id="v6y4CA4gG0J5MYWAcDff-22" value="&lt;span style=&quot;font-size: 18px;&quot;&gt;Закон РФ №2300-1 &quot;О&lt;/span&gt;&lt;br style=&quot;font-size: 18px;&quot;&gt;&lt;span style=&quot;font-size: 18px;&quot;&gt;защите прав потребителей&quot;&lt;/span&gt;" style="edgeLabel;html=1;align=center;verticalAlign=middle;resizable=0;points=[];fontSize=18;fontFamily=Lucida Console;labelBackgroundColor=none;rotation=-90;" parent="v6y4CA4gG0J5MYWAcDff-21" vertex="1" connectable="0">
          <mxGeometry x="-0.4801" y="2" relative="1" as="geometry">
            <mxPoint x="-32" y="26" as="offset" />
          </mxGeometry>
        </mxCell>
        <mxCell id="2UAIDezuXPd8HjLeTTzg-4" value="Передача оборудования" style="rounded=0;whiteSpace=wrap;html=1;strokeWidth=2;fontSize=18;fontFamily=Lucida Console;" parent="1" vertex="1">
          <mxGeometry x="1450" y="640" width="240" height="80" as="geometry" />
        </mxCell>
      </root>
    </mxGraphModel>
  </diagram>
  <diagram id="1QdDeaB1-qMtNQWLdTpK" name="Регистрация заказчика (декомпозиция 2-ого уровня)">
    <mxGraphModel dx="3502" dy="1258" grid="1" gridSize="10" guides="1" tooltips="1" connect="1" arrows="1" fold="1" page="1" pageScale="1" pageWidth="1169" pageHeight="827" math="0" shadow="0">
      <root>
        <mxCell id="0" />
        <mxCell id="1" parent="0" />
        <mxCell id="3tkqn4ScFVb_2N4U-gRS-3" value="" style="edgeStyle=orthogonalEdgeStyle;rounded=0;orthogonalLoop=1;jettySize=auto;html=1;strokeWidth=2;exitX=0.5;exitY=1;exitDx=0;exitDy=0;exitPerimeter=0;" parent="1" source="3tkqn4ScFVb_2N4U-gRS-1" target="3tkqn4ScFVb_2N4U-gRS-2" edge="1">
          <mxGeometry relative="1" as="geometry">
            <mxPoint x="-385" y="90" as="sourcePoint" />
          </mxGeometry>
        </mxCell>
        <mxCell id="3tkqn4ScFVb_2N4U-gRS-1" value="Начало" style="strokeWidth=2;html=1;shape=mxgraph.flowchart.start_1;whiteSpace=wrap;fontSize=18;fontFamily=Lucida Console;" parent="1" vertex="1">
          <mxGeometry x="-478" y="20" width="145" height="60" as="geometry" />
        </mxCell>
        <mxCell id="3tkqn4ScFVb_2N4U-gRS-5" value="" style="edgeStyle=orthogonalEdgeStyle;rounded=0;orthogonalLoop=1;jettySize=auto;html=1;strokeWidth=2;" parent="1" source="3tkqn4ScFVb_2N4U-gRS-2" target="3tkqn4ScFVb_2N4U-gRS-4" edge="1">
          <mxGeometry relative="1" as="geometry" />
        </mxCell>
        <mxCell id="3tkqn4ScFVb_2N4U-gRS-2" value="Обращение заказчика" style="rounded=1;whiteSpace=wrap;html=1;absoluteArcSize=1;arcSize=14;strokeWidth=2;fontSize=18;fontFamily=Lucida Console;" parent="1" vertex="1">
          <mxGeometry x="-519" y="110" width="228" height="60" as="geometry" />
        </mxCell>
        <mxCell id="3tkqn4ScFVb_2N4U-gRS-7" value="" style="edgeStyle=orthogonalEdgeStyle;rounded=0;orthogonalLoop=1;jettySize=auto;html=1;strokeWidth=2;" parent="1" source="3tkqn4ScFVb_2N4U-gRS-4" target="3tkqn4ScFVb_2N4U-gRS-6" edge="1">
          <mxGeometry relative="1" as="geometry" />
        </mxCell>
        <mxCell id="3tkqn4ScFVb_2N4U-gRS-4" value="&lt;font style=&quot;font-size: 18px;&quot;&gt;Предоставление документов&lt;/font&gt;" style="shape=parallelogram;html=1;strokeWidth=2;perimeter=parallelogramPerimeter;whiteSpace=wrap;rounded=1;arcSize=12;size=0.23;fontSize=18;fontFamily=Lucida Console;" parent="1" vertex="1">
          <mxGeometry x="-540" y="210" width="270" height="70" as="geometry" />
        </mxCell>
        <mxCell id="3tkqn4ScFVb_2N4U-gRS-6" value="Проверка регистрации" style="strokeWidth=2;html=1;shape=mxgraph.flowchart.decision;whiteSpace=wrap;fontSize=18;fontFamily=Lucida Console;" parent="1" vertex="1">
          <mxGeometry x="-535" y="320" width="260" height="80" as="geometry" />
        </mxCell>
        <mxCell id="3tkqn4ScFVb_2N4U-gRS-24" style="edgeStyle=orthogonalEdgeStyle;rounded=1;orthogonalLoop=1;jettySize=auto;html=1;exitX=0;exitY=0.5;exitDx=0;exitDy=0;exitPerimeter=0;entryX=0.5;entryY=0;entryDx=0;entryDy=0;strokeWidth=2;curved=0;" parent="1" source="3tkqn4ScFVb_2N4U-gRS-8" target="3tkqn4ScFVb_2N4U-gRS-21" edge="1">
          <mxGeometry relative="1" as="geometry" />
        </mxCell>
        <mxCell id="3tkqn4ScFVb_2N4U-gRS-27" value="Физическое лицо" style="edgeLabel;html=1;align=center;verticalAlign=middle;resizable=0;points=[];fontSize=14;fontFamily=Lucida Console;labelBackgroundColor=none;" parent="3tkqn4ScFVb_2N4U-gRS-24" vertex="1" connectable="0">
          <mxGeometry x="-0.2528" y="4" relative="1" as="geometry">
            <mxPoint x="19" y="-24" as="offset" />
          </mxGeometry>
        </mxCell>
        <mxCell id="3tkqn4ScFVb_2N4U-gRS-25" value="" style="edgeStyle=orthogonalEdgeStyle;rounded=0;orthogonalLoop=1;jettySize=auto;html=1;strokeWidth=2;" parent="1" source="3tkqn4ScFVb_2N4U-gRS-8" target="3tkqn4ScFVb_2N4U-gRS-22" edge="1">
          <mxGeometry relative="1" as="geometry" />
        </mxCell>
        <mxCell id="3tkqn4ScFVb_2N4U-gRS-28" value="ИП" style="edgeLabel;html=1;align=center;verticalAlign=middle;resizable=0;points=[];fontSize=14;fontFamily=Lucida Console;labelBackgroundColor=none;" parent="3tkqn4ScFVb_2N4U-gRS-25" vertex="1" connectable="0">
          <mxGeometry x="0.1601" y="1" relative="1" as="geometry">
            <mxPoint x="14" y="-9" as="offset" />
          </mxGeometry>
        </mxCell>
        <mxCell id="3tkqn4ScFVb_2N4U-gRS-26" style="edgeStyle=orthogonalEdgeStyle;rounded=1;orthogonalLoop=1;jettySize=auto;html=1;exitX=1;exitY=0.5;exitDx=0;exitDy=0;exitPerimeter=0;entryX=0.5;entryY=0;entryDx=0;entryDy=0;strokeWidth=2;curved=0;" parent="1" source="3tkqn4ScFVb_2N4U-gRS-8" target="3tkqn4ScFVb_2N4U-gRS-23" edge="1">
          <mxGeometry relative="1" as="geometry" />
        </mxCell>
        <mxCell id="3tkqn4ScFVb_2N4U-gRS-29" value="Организация" style="edgeLabel;html=1;align=center;verticalAlign=middle;resizable=0;points=[];fontSize=14;fontFamily=Lucida Console;labelBackgroundColor=none;" parent="3tkqn4ScFVb_2N4U-gRS-26" vertex="1" connectable="0">
          <mxGeometry x="-0.4926" y="-2" relative="1" as="geometry">
            <mxPoint x="14" y="-22" as="offset" />
          </mxGeometry>
        </mxCell>
        <mxCell id="3tkqn4ScFVb_2N4U-gRS-8" value="Идентификация заказчика" style="strokeWidth=2;html=1;shape=mxgraph.flowchart.decision;whiteSpace=wrap;fontSize=18;fontFamily=Lucida Console;" parent="1" vertex="1">
          <mxGeometry x="-553" y="460" width="295" height="80" as="geometry" />
        </mxCell>
        <mxCell id="3tkqn4ScFVb_2N4U-gRS-9" style="edgeStyle=orthogonalEdgeStyle;rounded=1;orthogonalLoop=1;jettySize=auto;html=1;exitX=0;exitY=0.5;exitDx=0;exitDy=0;exitPerimeter=0;entryX=0.5;entryY=0;entryDx=0;entryDy=0;entryPerimeter=0;strokeWidth=2;curved=0;" parent="1" source="3tkqn4ScFVb_2N4U-gRS-6" target="3tkqn4ScFVb_2N4U-gRS-8" edge="1">
          <mxGeometry relative="1" as="geometry">
            <Array as="points">
              <mxPoint x="-670" y="360" />
              <mxPoint x="-670" y="430" />
              <mxPoint x="-405" y="430" />
            </Array>
          </mxGeometry>
        </mxCell>
        <mxCell id="3tkqn4ScFVb_2N4U-gRS-11" value="Зарегистрирован" style="edgeLabel;html=1;align=center;verticalAlign=middle;resizable=0;points=[];fontSize=14;fontFamily=Lucida Console;labelBackgroundColor=none;" parent="3tkqn4ScFVb_2N4U-gRS-9" vertex="1" connectable="0">
          <mxGeometry x="-0.7206" y="-2" relative="1" as="geometry">
            <mxPoint x="3" y="-18" as="offset" />
          </mxGeometry>
        </mxCell>
        <mxCell id="3tkqn4ScFVb_2N4U-gRS-10" style="edgeStyle=orthogonalEdgeStyle;rounded=1;orthogonalLoop=1;jettySize=auto;html=1;exitX=1;exitY=0.5;exitDx=0;exitDy=0;exitPerimeter=0;entryX=0.5;entryY=0;entryDx=0;entryDy=0;entryPerimeter=0;strokeWidth=2;curved=0;" parent="1" source="3tkqn4ScFVb_2N4U-gRS-6" target="3tkqn4ScFVb_2N4U-gRS-8" edge="1">
          <mxGeometry relative="1" as="geometry">
            <Array as="points">
              <mxPoint x="-150" y="360" />
              <mxPoint x="-150" y="430" />
              <mxPoint x="-405" y="430" />
            </Array>
          </mxGeometry>
        </mxCell>
        <mxCell id="3tkqn4ScFVb_2N4U-gRS-12" value="Не зарегистрирован" style="edgeLabel;html=1;align=center;verticalAlign=middle;resizable=0;points=[];fontSize=14;fontFamily=Lucida Console;labelBackgroundColor=none;" parent="3tkqn4ScFVb_2N4U-gRS-10" vertex="1" connectable="0">
          <mxGeometry x="-0.7972" y="2" relative="1" as="geometry">
            <mxPoint x="-3" y="-18" as="offset" />
          </mxGeometry>
        </mxCell>
        <mxCell id="3tkqn4ScFVb_2N4U-gRS-43" value="" style="edgeStyle=orthogonalEdgeStyle;rounded=0;orthogonalLoop=1;jettySize=auto;html=1;strokeWidth=2;" parent="1" source="3tkqn4ScFVb_2N4U-gRS-21" target="3tkqn4ScFVb_2N4U-gRS-42" edge="1">
          <mxGeometry relative="1" as="geometry" />
        </mxCell>
        <mxCell id="3tkqn4ScFVb_2N4U-gRS-21" value="&lt;font style=&quot;font-size: 18px;&quot;&gt;Предоставление паспорта&lt;/font&gt;" style="shape=parallelogram;html=1;strokeWidth=2;perimeter=parallelogramPerimeter;whiteSpace=wrap;rounded=1;arcSize=12;size=0.23;fontSize=18;fontFamily=Lucida Console;" parent="1" vertex="1">
          <mxGeometry x="-950" y="590" width="240" height="70" as="geometry" />
        </mxCell>
        <mxCell id="3tkqn4ScFVb_2N4U-gRS-22" value="&lt;font style=&quot;font-size: 18px;&quot;&gt;Предоставление &lt;br&gt;ЕГРИП&lt;/font&gt;" style="shape=parallelogram;html=1;strokeWidth=2;perimeter=parallelogramPerimeter;whiteSpace=wrap;rounded=1;arcSize=12;size=0.23;fontSize=18;fontFamily=Lucida Console;" parent="1" vertex="1">
          <mxGeometry x="-525" y="590" width="240" height="70" as="geometry" />
        </mxCell>
        <mxCell id="3tkqn4ScFVb_2N4U-gRS-23" value="&lt;font style=&quot;font-size: 18px;&quot;&gt;Предоставление &lt;br&gt;ЕГРЮЛ&lt;/font&gt;" style="shape=parallelogram;html=1;strokeWidth=2;perimeter=parallelogramPerimeter;whiteSpace=wrap;rounded=1;arcSize=12;size=0.23;fontSize=18;fontFamily=Lucida Console;" parent="1" vertex="1">
          <mxGeometry x="-100" y="590" width="240" height="70" as="geometry" />
        </mxCell>
        <mxCell id="3tkqn4ScFVb_2N4U-gRS-38" value="Проверка документов" style="strokeWidth=2;html=1;shape=mxgraph.flowchart.decision;whiteSpace=wrap;fontSize=18;fontFamily=Lucida Console;" parent="1" vertex="1">
          <mxGeometry x="-340" y="710" width="295" height="80" as="geometry" />
        </mxCell>
        <mxCell id="3tkqn4ScFVb_2N4U-gRS-40" style="edgeStyle=orthogonalEdgeStyle;rounded=1;orthogonalLoop=1;jettySize=auto;html=1;entryX=0.5;entryY=0;entryDx=0;entryDy=0;entryPerimeter=0;strokeWidth=2;curved=0;exitX=0.5;exitY=1;exitDx=0;exitDy=0;" parent="1" source="3tkqn4ScFVb_2N4U-gRS-23" target="3tkqn4ScFVb_2N4U-gRS-38" edge="1">
          <mxGeometry relative="1" as="geometry">
            <Array as="points">
              <mxPoint x="20" y="680" />
              <mxPoint x="-193" y="680" />
            </Array>
          </mxGeometry>
        </mxCell>
        <mxCell id="3tkqn4ScFVb_2N4U-gRS-41" style="edgeStyle=orthogonalEdgeStyle;rounded=1;orthogonalLoop=1;jettySize=auto;html=1;exitX=0.5;exitY=1;exitDx=0;exitDy=0;entryX=0.5;entryY=0;entryDx=0;entryDy=0;entryPerimeter=0;strokeWidth=2;curved=0;" parent="1" source="3tkqn4ScFVb_2N4U-gRS-22" target="3tkqn4ScFVb_2N4U-gRS-38" edge="1">
          <mxGeometry relative="1" as="geometry">
            <Array as="points">
              <mxPoint x="-405" y="680" />
              <mxPoint x="-192" y="680" />
              <mxPoint x="-192" y="710" />
            </Array>
          </mxGeometry>
        </mxCell>
        <mxCell id="3tkqn4ScFVb_2N4U-gRS-49" style="edgeStyle=orthogonalEdgeStyle;rounded=1;orthogonalLoop=1;jettySize=auto;html=1;exitX=0;exitY=0.5;exitDx=0;exitDy=0;exitPerimeter=0;entryX=0.5;entryY=0;entryDx=0;entryDy=0;strokeWidth=2;curved=0;" parent="1" source="3tkqn4ScFVb_2N4U-gRS-42" target="3tkqn4ScFVb_2N4U-gRS-48" edge="1">
          <mxGeometry relative="1" as="geometry" />
        </mxCell>
        <mxCell id="3tkqn4ScFVb_2N4U-gRS-50" value="Корректные" style="edgeLabel;html=1;align=center;verticalAlign=middle;resizable=0;points=[];fontSize=14;labelBackgroundColor=none;fontFamily=Lucida Console;" parent="3tkqn4ScFVb_2N4U-gRS-49" vertex="1" connectable="0">
          <mxGeometry x="-0.3241" y="3" relative="1" as="geometry">
            <mxPoint x="24" y="-23" as="offset" />
          </mxGeometry>
        </mxCell>
        <mxCell id="3tkqn4ScFVb_2N4U-gRS-42" value="Проверка документов" style="strokeWidth=2;html=1;shape=mxgraph.flowchart.decision;whiteSpace=wrap;fontSize=18;fontFamily=Lucida Console;" parent="1" vertex="1">
          <mxGeometry x="-977.5" y="710" width="295" height="80" as="geometry" />
        </mxCell>
        <mxCell id="3tkqn4ScFVb_2N4U-gRS-44" value="Конец" style="strokeWidth=2;html=1;shape=mxgraph.flowchart.start_1;whiteSpace=wrap;fontSize=18;fontFamily=Lucida Console;" parent="1" vertex="1">
          <mxGeometry x="-680" y="810" width="145" height="60" as="geometry" />
        </mxCell>
        <mxCell id="3tkqn4ScFVb_2N4U-gRS-45" style="edgeStyle=orthogonalEdgeStyle;rounded=1;orthogonalLoop=1;jettySize=auto;html=1;exitX=1;exitY=0.5;exitDx=0;exitDy=0;exitPerimeter=0;entryX=0.5;entryY=0;entryDx=0;entryDy=0;entryPerimeter=0;strokeWidth=2;curved=0;" parent="1" source="3tkqn4ScFVb_2N4U-gRS-42" target="3tkqn4ScFVb_2N4U-gRS-44" edge="1">
          <mxGeometry relative="1" as="geometry" />
        </mxCell>
        <mxCell id="3tkqn4ScFVb_2N4U-gRS-46" value="Некорректные" style="edgeLabel;html=1;align=center;verticalAlign=middle;resizable=0;points=[];fontSize=14;fontFamily=Lucida Console;labelBackgroundColor=none;" parent="3tkqn4ScFVb_2N4U-gRS-45" vertex="1" connectable="0">
          <mxGeometry x="-0.5508" y="-2" relative="1" as="geometry">
            <mxPoint x="-10" y="-22" as="offset" />
          </mxGeometry>
        </mxCell>
        <mxCell id="3tkqn4ScFVb_2N4U-gRS-52" value="" style="edgeStyle=orthogonalEdgeStyle;rounded=0;orthogonalLoop=1;jettySize=auto;html=1;strokeWidth=2;" parent="1" source="3tkqn4ScFVb_2N4U-gRS-48" target="3tkqn4ScFVb_2N4U-gRS-51" edge="1">
          <mxGeometry relative="1" as="geometry" />
        </mxCell>
        <mxCell id="3tkqn4ScFVb_2N4U-gRS-48" value="Занесение информации о заказчике в БД" style="rounded=1;whiteSpace=wrap;html=1;absoluteArcSize=1;arcSize=14;strokeWidth=2;fontSize=18;fontFamily=Lucida Console;" parent="1" vertex="1">
          <mxGeometry x="-1160" y="810" width="228" height="60" as="geometry" />
        </mxCell>
        <mxCell id="3tkqn4ScFVb_2N4U-gRS-51" value="Конец" style="strokeWidth=2;html=1;shape=mxgraph.flowchart.start_1;whiteSpace=wrap;fontSize=18;fontFamily=Lucida Console;" parent="1" vertex="1">
          <mxGeometry x="-1118.5" y="910" width="145" height="60" as="geometry" />
        </mxCell>
        <mxCell id="3tkqn4ScFVb_2N4U-gRS-53" value="Конец" style="strokeWidth=2;html=1;shape=mxgraph.flowchart.start_1;whiteSpace=wrap;fontSize=18;fontFamily=Lucida Console;" parent="1" vertex="1">
          <mxGeometry x="-52.5" y="910" width="145" height="60" as="geometry" />
        </mxCell>
        <mxCell id="3tkqn4ScFVb_2N4U-gRS-54" style="edgeStyle=orthogonalEdgeStyle;rounded=1;orthogonalLoop=1;jettySize=auto;html=1;exitX=1;exitY=0.5;exitDx=0;exitDy=0;exitPerimeter=0;entryX=0.5;entryY=0;entryDx=0;entryDy=0;entryPerimeter=0;strokeWidth=2;curved=0;" parent="1" source="3tkqn4ScFVb_2N4U-gRS-38" target="3tkqn4ScFVb_2N4U-gRS-53" edge="1">
          <mxGeometry relative="1" as="geometry" />
        </mxCell>
        <mxCell id="3tkqn4ScFVb_2N4U-gRS-55" value="Некорректные" style="edgeLabel;html=1;align=center;verticalAlign=middle;resizable=0;points=[];fontSize=14;fontFamily=Lucida Console;labelBackgroundColor=none;" parent="3tkqn4ScFVb_2N4U-gRS-54" vertex="1" connectable="0">
          <mxGeometry x="-0.312" y="-1" relative="1" as="geometry">
            <mxPoint x="-49" y="-39" as="offset" />
          </mxGeometry>
        </mxCell>
        <mxCell id="3tkqn4ScFVb_2N4U-gRS-60" style="edgeStyle=orthogonalEdgeStyle;rounded=1;orthogonalLoop=1;jettySize=auto;html=1;exitX=0;exitY=0.5;exitDx=0;exitDy=0;exitPerimeter=0;entryX=0.5;entryY=0;entryDx=0;entryDy=0;strokeWidth=2;curved=0;" parent="1" source="3tkqn4ScFVb_2N4U-gRS-56" target="3tkqn4ScFVb_2N4U-gRS-59" edge="1">
          <mxGeometry relative="1" as="geometry" />
        </mxCell>
        <mxCell id="3tkqn4ScFVb_2N4U-gRS-61" value="Пройдена" style="edgeLabel;html=1;align=center;verticalAlign=middle;resizable=0;points=[];fontSize=14;fontFamily=Lucida Console;labelBackgroundColor=none;" parent="3tkqn4ScFVb_2N4U-gRS-60" vertex="1" connectable="0">
          <mxGeometry x="0.0714" y="-1" relative="1" as="geometry">
            <mxPoint x="38" y="-32" as="offset" />
          </mxGeometry>
        </mxCell>
        <mxCell id="3tkqn4ScFVb_2N4U-gRS-56" value="Проверка предприятия" style="strokeWidth=2;html=1;shape=mxgraph.flowchart.decision;whiteSpace=wrap;fontSize=18;fontFamily=Lucida Console;" parent="1" vertex="1">
          <mxGeometry x="-553" y="900" width="295" height="80" as="geometry" />
        </mxCell>
        <mxCell id="3tkqn4ScFVb_2N4U-gRS-57" style="edgeStyle=orthogonalEdgeStyle;rounded=1;orthogonalLoop=1;jettySize=auto;html=1;exitX=0;exitY=0.5;exitDx=0;exitDy=0;exitPerimeter=0;entryX=0.5;entryY=0;entryDx=0;entryDy=0;entryPerimeter=0;strokeWidth=2;curved=0;" parent="1" source="3tkqn4ScFVb_2N4U-gRS-38" target="3tkqn4ScFVb_2N4U-gRS-56" edge="1">
          <mxGeometry relative="1" as="geometry" />
        </mxCell>
        <mxCell id="3tkqn4ScFVb_2N4U-gRS-58" value="Корректные" style="edgeLabel;html=1;align=center;verticalAlign=middle;resizable=0;points=[];fontSize=14;fontFamily=Lucida Console;labelBackgroundColor=none;" parent="3tkqn4ScFVb_2N4U-gRS-57" vertex="1" connectable="0">
          <mxGeometry x="-0.2346" y="3" relative="1" as="geometry">
            <mxPoint x="42" y="-41" as="offset" />
          </mxGeometry>
        </mxCell>
        <mxCell id="3tkqn4ScFVb_2N4U-gRS-63" value="" style="edgeStyle=orthogonalEdgeStyle;rounded=0;orthogonalLoop=1;jettySize=auto;html=1;strokeWidth=2;" parent="1" source="3tkqn4ScFVb_2N4U-gRS-59" target="3tkqn4ScFVb_2N4U-gRS-62" edge="1">
          <mxGeometry relative="1" as="geometry" />
        </mxCell>
        <mxCell id="3tkqn4ScFVb_2N4U-gRS-59" value="Занесение информации о заказчике в БД" style="rounded=1;whiteSpace=wrap;html=1;absoluteArcSize=1;arcSize=14;strokeWidth=2;fontSize=18;fontFamily=Lucida Console;" parent="1" vertex="1">
          <mxGeometry x="-721.5" y="1010" width="228" height="60" as="geometry" />
        </mxCell>
        <mxCell id="3tkqn4ScFVb_2N4U-gRS-62" value="Конец" style="strokeWidth=2;html=1;shape=mxgraph.flowchart.start_1;whiteSpace=wrap;fontSize=18;fontFamily=Lucida Console;" parent="1" vertex="1">
          <mxGeometry x="-680" y="1110" width="145" height="60" as="geometry" />
        </mxCell>
        <mxCell id="3tkqn4ScFVb_2N4U-gRS-68" style="edgeStyle=orthogonalEdgeStyle;rounded=1;orthogonalLoop=1;jettySize=auto;html=1;exitX=0;exitY=0.5;exitDx=0;exitDy=0;exitPerimeter=0;entryX=0.5;entryY=0;entryDx=0;entryDy=0;entryPerimeter=0;strokeWidth=2;curved=0;" parent="1" source="3tkqn4ScFVb_2N4U-gRS-64" target="3tkqn4ScFVb_2N4U-gRS-67" edge="1">
          <mxGeometry relative="1" as="geometry" />
        </mxCell>
        <mxCell id="3tkqn4ScFVb_2N4U-gRS-69" value="Есть" style="edgeLabel;html=1;align=center;verticalAlign=middle;resizable=0;points=[];fontSize=14;fontFamily=Lucida Console;labelBackgroundColor=none;" parent="3tkqn4ScFVb_2N4U-gRS-68" vertex="1" connectable="0">
          <mxGeometry x="-0.0816" y="2" relative="1" as="geometry">
            <mxPoint x="32" y="-22" as="offset" />
          </mxGeometry>
        </mxCell>
        <mxCell id="3tkqn4ScFVb_2N4U-gRS-73" style="edgeStyle=orthogonalEdgeStyle;rounded=1;orthogonalLoop=1;jettySize=auto;html=1;exitX=1;exitY=0.5;exitDx=0;exitDy=0;exitPerimeter=0;entryX=0.5;entryY=0;entryDx=0;entryDy=0;strokeWidth=2;curved=0;" parent="1" source="3tkqn4ScFVb_2N4U-gRS-64" target="3tkqn4ScFVb_2N4U-gRS-71" edge="1">
          <mxGeometry relative="1" as="geometry" />
        </mxCell>
        <mxCell id="3tkqn4ScFVb_2N4U-gRS-74" value="Отсутствуют" style="edgeLabel;html=1;align=center;verticalAlign=middle;resizable=0;points=[];fontSize=14;fontFamily=Lucida Console;labelBackgroundColor=none;" parent="3tkqn4ScFVb_2N4U-gRS-73" vertex="1" connectable="0">
          <mxGeometry x="-0.7248" y="-1" relative="1" as="geometry">
            <mxPoint x="-4" y="-21" as="offset" />
          </mxGeometry>
        </mxCell>
        <mxCell id="3tkqn4ScFVb_2N4U-gRS-64" value="Признаки банкротства" style="strokeWidth=2;html=1;shape=mxgraph.flowchart.decision;whiteSpace=wrap;fontSize=18;fontFamily=Lucida Console;" parent="1" vertex="1">
          <mxGeometry x="-340" y="1000" width="295" height="80" as="geometry" />
        </mxCell>
        <mxCell id="3tkqn4ScFVb_2N4U-gRS-65" style="edgeStyle=orthogonalEdgeStyle;rounded=1;orthogonalLoop=1;jettySize=auto;html=1;exitX=1;exitY=0.5;exitDx=0;exitDy=0;exitPerimeter=0;entryX=0.5;entryY=0;entryDx=0;entryDy=0;entryPerimeter=0;strokeWidth=2;strokeColor=default;curved=0;" parent="1" source="3tkqn4ScFVb_2N4U-gRS-56" target="3tkqn4ScFVb_2N4U-gRS-64" edge="1">
          <mxGeometry relative="1" as="geometry" />
        </mxCell>
        <mxCell id="3tkqn4ScFVb_2N4U-gRS-66" value="Не пройдена" style="edgeLabel;html=1;align=center;verticalAlign=middle;resizable=0;points=[];fontSize=14;fontFamily=Lucida Console;labelBackgroundColor=none;" parent="3tkqn4ScFVb_2N4U-gRS-65" vertex="1" connectable="0">
          <mxGeometry x="-0.4128" y="5" relative="1" as="geometry">
            <mxPoint x="-19" y="-15" as="offset" />
          </mxGeometry>
        </mxCell>
        <mxCell id="3tkqn4ScFVb_2N4U-gRS-67" value="Конец" style="strokeWidth=2;html=1;shape=mxgraph.flowchart.start_1;whiteSpace=wrap;fontSize=18;fontFamily=Lucida Console;" parent="1" vertex="1">
          <mxGeometry x="-478" y="1110" width="145" height="60" as="geometry" />
        </mxCell>
        <mxCell id="3tkqn4ScFVb_2N4U-gRS-70" value="" style="edgeStyle=orthogonalEdgeStyle;rounded=0;orthogonalLoop=1;jettySize=auto;html=1;strokeWidth=2;" parent="1" source="3tkqn4ScFVb_2N4U-gRS-71" target="3tkqn4ScFVb_2N4U-gRS-72" edge="1">
          <mxGeometry relative="1" as="geometry" />
        </mxCell>
        <mxCell id="3tkqn4ScFVb_2N4U-gRS-71" value="Занесение информации о заказчике в БД" style="rounded=1;whiteSpace=wrap;html=1;absoluteArcSize=1;arcSize=14;strokeWidth=2;fontSize=18;fontFamily=Lucida Console;" parent="1" vertex="1">
          <mxGeometry x="-94" y="1110" width="228" height="60" as="geometry" />
        </mxCell>
        <mxCell id="3tkqn4ScFVb_2N4U-gRS-72" value="Конец" style="strokeWidth=2;html=1;shape=mxgraph.flowchart.start_1;whiteSpace=wrap;fontSize=18;fontFamily=Lucida Console;" parent="1" vertex="1">
          <mxGeometry x="-52.5" y="1210" width="145" height="60" as="geometry" />
        </mxCell>
      </root>
    </mxGraphModel>
  </diagram>
  <diagram id="Rc7xVbIno5fGRluGUE3l" name="Выбор оборудования (декомпозиция 2-ого уровня)">
    <mxGraphModel dx="581" dy="943" grid="1" gridSize="10" guides="1" tooltips="1" connect="1" arrows="1" fold="1" page="1" pageScale="1" pageWidth="1169" pageHeight="827" math="0" shadow="0">
      <root>
        <mxCell id="0" />
        <mxCell id="1" parent="0" />
        <mxCell id="CcaPwd63ll_RIv7vrfAq-1" value="Выбор оборудования" style="swimlane;childLayout=stackLayout;resizeParent=1;resizeParentMax=0;startSize=30;html=1;strokeWidth=2;fontSize=18;fontFamily=Lucida Console;" parent="1" vertex="1">
          <mxGeometry x="1200" y="30" width="1360" height="930" as="geometry" />
        </mxCell>
        <mxCell id="CcaPwd63ll_RIv7vrfAq-2" value="Главный бухгалтер" style="swimlane;startSize=40;html=1;strokeWidth=2;fontSize=18;fontFamily=Lucida Console;" parent="CcaPwd63ll_RIv7vrfAq-1" vertex="1">
          <mxGeometry y="30" width="320" height="900" as="geometry" />
        </mxCell>
        <mxCell id="cvOvkEpIZ9xMOGwRorF6-1" value="Составление договора аренды" style="rounded=1;whiteSpace=wrap;html=1;absoluteArcSize=1;arcSize=14;strokeWidth=2;fontSize=18;fontFamily=Lucida Console;" parent="CcaPwd63ll_RIv7vrfAq-2" vertex="1">
          <mxGeometry x="60" y="615" width="200" height="50" as="geometry" />
        </mxCell>
        <mxCell id="3j71dxPaWJqmjv8ycun9-1" value="&lt;div&gt;Составленный&lt;/div&gt;&lt;div&gt;договор аренды&lt;br&gt;&lt;/div&gt;" style="shape=parallelogram;html=1;strokeWidth=2;perimeter=parallelogramPerimeter;whiteSpace=wrap;rounded=1;arcSize=12;size=0.23;fontSize=18;fontFamily=Lucida Console;" parent="CcaPwd63ll_RIv7vrfAq-2" vertex="1">
          <mxGeometry x="55.5" y="705" width="209" height="60" as="geometry" />
        </mxCell>
        <mxCell id="3j71dxPaWJqmjv8ycun9-2" value="" style="edgeStyle=orthogonalEdgeStyle;rounded=0;orthogonalLoop=1;jettySize=auto;html=1;strokeWidth=2;" parent="CcaPwd63ll_RIv7vrfAq-2" source="cvOvkEpIZ9xMOGwRorF6-1" target="3j71dxPaWJqmjv8ycun9-1" edge="1">
          <mxGeometry relative="1" as="geometry" />
        </mxCell>
        <mxCell id="xRsKPBHzEcjV3XUZfeZW-32" value="Конец" style="strokeWidth=2;html=1;shape=mxgraph.flowchart.start_1;whiteSpace=wrap;fontSize=18;fontFamily=Lucida Console;" parent="CcaPwd63ll_RIv7vrfAq-2" vertex="1">
          <mxGeometry x="110" y="815" width="100" height="50" as="geometry" />
        </mxCell>
        <mxCell id="3j71dxPaWJqmjv8ycun9-3" value="" style="edgeStyle=orthogonalEdgeStyle;rounded=0;orthogonalLoop=1;jettySize=auto;html=1;strokeWidth=2;" parent="CcaPwd63ll_RIv7vrfAq-2" source="3j71dxPaWJqmjv8ycun9-1" target="xRsKPBHzEcjV3XUZfeZW-32" edge="1">
          <mxGeometry relative="1" as="geometry" />
        </mxCell>
        <mxCell id="cvOvkEpIZ9xMOGwRorF6-2" value="" style="edgeStyle=orthogonalEdgeStyle;rounded=0;orthogonalLoop=1;jettySize=auto;html=1;strokeWidth=2;entryX=1;entryY=0.5;entryDx=0;entryDy=0;" parent="CcaPwd63ll_RIv7vrfAq-1" source="xRsKPBHzEcjV3XUZfeZW-31" target="cvOvkEpIZ9xMOGwRorF6-1" edge="1">
          <mxGeometry relative="1" as="geometry">
            <mxPoint x="280" y="840" as="targetPoint" />
          </mxGeometry>
        </mxCell>
        <mxCell id="CcaPwd63ll_RIv7vrfAq-4" value="Начальник хозяйственного отдела" style="swimlane;startSize=40;html=1;strokeWidth=2;fontSize=18;fontFamily=Lucida Console;" parent="CcaPwd63ll_RIv7vrfAq-1" vertex="1">
          <mxGeometry x="320" y="30" width="1040" height="900" as="geometry" />
        </mxCell>
        <mxCell id="xRsKPBHzEcjV3XUZfeZW-2" value="" style="edgeStyle=orthogonalEdgeStyle;rounded=0;orthogonalLoop=1;jettySize=auto;html=1;strokeWidth=2;" parent="CcaPwd63ll_RIv7vrfAq-4" source="QdPvI1Ehc5Vw2Xov3usr-1" target="xRsKPBHzEcjV3XUZfeZW-1" edge="1">
          <mxGeometry relative="1" as="geometry" />
        </mxCell>
        <mxCell id="QdPvI1Ehc5Vw2Xov3usr-1" value="Начало" style="strokeWidth=2;html=1;shape=mxgraph.flowchart.start_1;whiteSpace=wrap;fontSize=18;fontFamily=Lucida Console;" parent="CcaPwd63ll_RIv7vrfAq-4" vertex="1">
          <mxGeometry x="581.31" y="70" width="100" height="50" as="geometry" />
        </mxCell>
        <mxCell id="xRsKPBHzEcjV3XUZfeZW-4" value="" style="edgeStyle=orthogonalEdgeStyle;rounded=0;orthogonalLoop=1;jettySize=auto;html=1;strokeWidth=2;" parent="CcaPwd63ll_RIv7vrfAq-4" source="xRsKPBHzEcjV3XUZfeZW-1" target="xRsKPBHzEcjV3XUZfeZW-3" edge="1">
          <mxGeometry relative="1" as="geometry" />
        </mxCell>
        <mxCell id="xRsKPBHzEcjV3XUZfeZW-1" value="Заявка заказчика" style="shape=parallelogram;html=1;strokeWidth=2;perimeter=parallelogramPerimeter;whiteSpace=wrap;rounded=1;arcSize=12;size=0.23;fontSize=18;fontFamily=Lucida Console;" parent="CcaPwd63ll_RIv7vrfAq-4" vertex="1">
          <mxGeometry x="504.30999999999995" y="160" width="253" height="60" as="geometry" />
        </mxCell>
        <mxCell id="xRsKPBHzEcjV3XUZfeZW-6" style="edgeStyle=orthogonalEdgeStyle;rounded=1;orthogonalLoop=1;jettySize=auto;html=1;exitX=0;exitY=0.5;exitDx=0;exitDy=0;exitPerimeter=0;entryX=0.5;entryY=0;entryDx=0;entryDy=0;strokeWidth=2;curved=0;" parent="CcaPwd63ll_RIv7vrfAq-4" source="xRsKPBHzEcjV3XUZfeZW-3" target="xRsKPBHzEcjV3XUZfeZW-16" edge="1">
          <mxGeometry relative="1" as="geometry">
            <mxPoint x="365.56" y="378" as="targetPoint" />
          </mxGeometry>
        </mxCell>
        <mxCell id="xRsKPBHzEcjV3XUZfeZW-9" value="Прошел проверку" style="edgeLabel;html=1;align=center;verticalAlign=middle;resizable=0;points=[];fontSize=14;fontFamily=Lucida Console;labelBackgroundColor=none;" parent="xRsKPBHzEcjV3XUZfeZW-6" vertex="1" connectable="0">
          <mxGeometry x="-0.2575" relative="1" as="geometry">
            <mxPoint x="29" y="-20" as="offset" />
          </mxGeometry>
        </mxCell>
        <mxCell id="xRsKPBHzEcjV3XUZfeZW-8" style="edgeStyle=orthogonalEdgeStyle;rounded=1;orthogonalLoop=1;jettySize=auto;html=1;exitX=1;exitY=0.5;exitDx=0;exitDy=0;exitPerimeter=0;entryX=0.5;entryY=0;entryDx=0;entryDy=0;strokeWidth=2;curved=0;" parent="CcaPwd63ll_RIv7vrfAq-4" source="xRsKPBHzEcjV3XUZfeZW-3" target="xRsKPBHzEcjV3XUZfeZW-7" edge="1">
          <mxGeometry relative="1" as="geometry" />
        </mxCell>
        <mxCell id="xRsKPBHzEcjV3XUZfeZW-10" value="Не прошел проверку" style="edgeLabel;html=1;align=center;verticalAlign=middle;resizable=0;points=[];fontSize=14;fontFamily=Lucida Console;labelBackgroundColor=none;" parent="xRsKPBHzEcjV3XUZfeZW-8" vertex="1" connectable="0">
          <mxGeometry x="-0.2579" y="-2" relative="1" as="geometry">
            <mxPoint x="-19" y="-22" as="offset" />
          </mxGeometry>
        </mxCell>
        <mxCell id="xRsKPBHzEcjV3XUZfeZW-3" value="Проверка инвентаря" style="strokeWidth=2;html=1;shape=mxgraph.flowchart.decision;whiteSpace=wrap;fontSize=18;fontFamily=Lucida Console;" parent="CcaPwd63ll_RIv7vrfAq-4" vertex="1">
          <mxGeometry x="466.05999999999995" y="270" width="330.5" height="100" as="geometry" />
        </mxCell>
        <mxCell id="xRsKPBHzEcjV3XUZfeZW-12" value="" style="edgeStyle=orthogonalEdgeStyle;rounded=0;orthogonalLoop=1;jettySize=auto;html=1;strokeWidth=2;" parent="CcaPwd63ll_RIv7vrfAq-4" source="xRsKPBHzEcjV3XUZfeZW-7" target="xRsKPBHzEcjV3XUZfeZW-11" edge="1">
          <mxGeometry relative="1" as="geometry" />
        </mxCell>
        <mxCell id="xRsKPBHzEcjV3XUZfeZW-7" value="Прерывание сделки" style="rounded=1;whiteSpace=wrap;html=1;absoluteArcSize=1;arcSize=14;strokeWidth=2;fontSize=18;fontFamily=Lucida Console;" parent="CcaPwd63ll_RIv7vrfAq-4" vertex="1">
          <mxGeometry x="796.56" y="403" width="200" height="50" as="geometry" />
        </mxCell>
        <mxCell id="xRsKPBHzEcjV3XUZfeZW-11" value="Конец" style="strokeWidth=2;html=1;shape=mxgraph.flowchart.start_1;whiteSpace=wrap;fontSize=18;fontFamily=Lucida Console;" parent="CcaPwd63ll_RIv7vrfAq-4" vertex="1">
          <mxGeometry x="846.56" y="500" width="100" height="50" as="geometry" />
        </mxCell>
        <mxCell id="xRsKPBHzEcjV3XUZfeZW-23" value="" style="edgeStyle=orthogonalEdgeStyle;rounded=0;orthogonalLoop=1;jettySize=auto;html=1;strokeWidth=2;" parent="CcaPwd63ll_RIv7vrfAq-4" source="xRsKPBHzEcjV3XUZfeZW-16" target="xRsKPBHzEcjV3XUZfeZW-22" edge="1">
          <mxGeometry relative="1" as="geometry" />
        </mxCell>
        <mxCell id="xRsKPBHzEcjV3XUZfeZW-16" value="Предоставление прайс-листа" style="rounded=1;whiteSpace=wrap;html=1;absoluteArcSize=1;arcSize=14;strokeWidth=2;fontSize=18;fontFamily=Lucida Console;" parent="CcaPwd63ll_RIv7vrfAq-4" vertex="1">
          <mxGeometry x="266.06" y="403" width="200" height="50" as="geometry" />
        </mxCell>
        <mxCell id="xRsKPBHzEcjV3XUZfeZW-33" style="edgeStyle=orthogonalEdgeStyle;rounded=1;orthogonalLoop=1;jettySize=auto;html=1;exitX=0;exitY=0.5;exitDx=0;exitDy=0;exitPerimeter=0;entryX=0.5;entryY=0;entryDx=0;entryDy=0;strokeWidth=2;curved=0;" parent="CcaPwd63ll_RIv7vrfAq-4" source="xRsKPBHzEcjV3XUZfeZW-22" target="xRsKPBHzEcjV3XUZfeZW-31" edge="1">
          <mxGeometry relative="1" as="geometry" />
        </mxCell>
        <mxCell id="xRsKPBHzEcjV3XUZfeZW-35" value="Согласен" style="edgeLabel;html=1;align=center;verticalAlign=middle;resizable=0;points=[];fontSize=14;fontFamily=Lucida Console;labelBackgroundColor=none;" parent="xRsKPBHzEcjV3XUZfeZW-33" vertex="1" connectable="0">
          <mxGeometry x="-0.3049" y="1" relative="1" as="geometry">
            <mxPoint x="19" y="-26" as="offset" />
          </mxGeometry>
        </mxCell>
        <mxCell id="xRsKPBHzEcjV3XUZfeZW-34" style="edgeStyle=orthogonalEdgeStyle;rounded=1;orthogonalLoop=1;jettySize=auto;html=1;exitX=1;exitY=0.5;exitDx=0;exitDy=0;exitPerimeter=0;entryX=0.5;entryY=0;entryDx=0;entryDy=0;strokeWidth=2;curved=0;" parent="CcaPwd63ll_RIv7vrfAq-4" source="xRsKPBHzEcjV3XUZfeZW-22" target="xRsKPBHzEcjV3XUZfeZW-25" edge="1">
          <mxGeometry relative="1" as="geometry" />
        </mxCell>
        <mxCell id="xRsKPBHzEcjV3XUZfeZW-36" value="Не согласен" style="edgeLabel;html=1;align=center;verticalAlign=middle;resizable=0;points=[];fontSize=14;fontFamily=Lucida Console;labelBackgroundColor=none;" parent="xRsKPBHzEcjV3XUZfeZW-34" vertex="1" connectable="0">
          <mxGeometry x="-0.4858" y="3" relative="1" as="geometry">
            <mxPoint x="-2" y="-22" as="offset" />
          </mxGeometry>
        </mxCell>
        <mxCell id="xRsKPBHzEcjV3XUZfeZW-22" value="&lt;div&gt;Согласование&lt;/div&gt;&lt;div&gt;условий&lt;br&gt;&lt;/div&gt;" style="strokeWidth=2;html=1;shape=mxgraph.flowchart.decision;whiteSpace=wrap;fontSize=18;fontFamily=Lucida Console;" parent="CcaPwd63ll_RIv7vrfAq-4" vertex="1">
          <mxGeometry x="243.43999999999988" y="500" width="245.25" height="100" as="geometry" />
        </mxCell>
        <mxCell id="xRsKPBHzEcjV3XUZfeZW-24" value="" style="edgeStyle=orthogonalEdgeStyle;rounded=0;orthogonalLoop=1;jettySize=auto;html=1;strokeWidth=2;" parent="CcaPwd63ll_RIv7vrfAq-4" source="xRsKPBHzEcjV3XUZfeZW-25" target="xRsKPBHzEcjV3XUZfeZW-26" edge="1">
          <mxGeometry relative="1" as="geometry" />
        </mxCell>
        <mxCell id="xRsKPBHzEcjV3XUZfeZW-25" value="Отказ" style="rounded=1;whiteSpace=wrap;html=1;absoluteArcSize=1;arcSize=14;strokeWidth=2;fontSize=18;fontFamily=Lucida Console;" parent="CcaPwd63ll_RIv7vrfAq-4" vertex="1">
          <mxGeometry x="488.69000000000005" y="615" width="200" height="50" as="geometry" />
        </mxCell>
        <mxCell id="xRsKPBHzEcjV3XUZfeZW-26" value="Конец" style="strokeWidth=2;html=1;shape=mxgraph.flowchart.start_1;whiteSpace=wrap;fontSize=18;fontFamily=Lucida Console;" parent="CcaPwd63ll_RIv7vrfAq-4" vertex="1">
          <mxGeometry x="538.69" y="710" width="100" height="50" as="geometry" />
        </mxCell>
        <mxCell id="xRsKPBHzEcjV3XUZfeZW-31" value="Определение периода аренды" style="rounded=1;whiteSpace=wrap;html=1;absoluteArcSize=1;arcSize=14;strokeWidth=2;fontSize=18;fontFamily=Lucida Console;" parent="CcaPwd63ll_RIv7vrfAq-4" vertex="1">
          <mxGeometry x="43.44" y="615" width="200" height="50" as="geometry" />
        </mxCell>
      </root>
    </mxGraphModel>
  </diagram>
  <diagram id="TCe8H2wTSJOH3xS6O7dN" name="Оформление документов (декомпозиция 2-ого уровня)">
    <mxGraphModel dx="2100" dy="1132" grid="1" gridSize="10" guides="1" tooltips="1" connect="1" arrows="1" fold="1" page="1" pageScale="1" pageWidth="1169" pageHeight="827" math="0" shadow="0">
      <root>
        <mxCell id="0" />
        <mxCell id="1" parent="0" />
        <mxCell id="Q75kil237R-haqhPHwh4-2" value="Оформление заказа" style="swimlane;childLayout=stackLayout;resizeParent=1;resizeParentMax=0;startSize=26;html=1;strokeWidth=2;fontSize=18;fontFamily=Lucida Console;" parent="1" vertex="1">
          <mxGeometry x="224" y="10" width="720" height="1030" as="geometry" />
        </mxCell>
        <mxCell id="Q75kil237R-haqhPHwh4-3" value="Директор" style="swimlane;startSize=30;html=1;strokeWidth=2;fontSize=18;fontFamily=Lucida Console;" parent="Q75kil237R-haqhPHwh4-2" vertex="1">
          <mxGeometry y="26" width="200" height="1004" as="geometry" />
        </mxCell>
        <mxCell id="ULZYGy4jq2OwbmwLsIlk-1" value="Подписание договора аренды" style="rounded=1;whiteSpace=wrap;html=1;absoluteArcSize=1;arcSize=14;strokeWidth=2;fontSize=18;fontFamily=Lucida Console;" parent="Q75kil237R-haqhPHwh4-3" vertex="1">
          <mxGeometry x="15.999999999999545" y="125" width="168" height="50" as="geometry" />
        </mxCell>
        <mxCell id="7jG04VSvbDKxPnAo1lyC-11" value="Подписание счета" style="rounded=1;whiteSpace=wrap;html=1;absoluteArcSize=1;arcSize=14;strokeWidth=2;fontSize=18;fontFamily=Lucida Console;" parent="Q75kil237R-haqhPHwh4-3" vertex="1">
          <mxGeometry x="15.999999999999545" y="509" width="168" height="50" as="geometry" />
        </mxCell>
        <mxCell id="Q75kil237R-haqhPHwh4-4" value="Главный бухгалтер" style="swimlane;startSize=30;html=1;strokeWidth=2;fontSize=18;fontFamily=Lucida Console;" parent="Q75kil237R-haqhPHwh4-2" vertex="1">
          <mxGeometry x="200" y="26" width="320" height="1004" as="geometry" />
        </mxCell>
        <mxCell id="pVf5M4L88B7sSgUoJ78F-2" value="" style="edgeStyle=orthogonalEdgeStyle;rounded=0;orthogonalLoop=1;jettySize=auto;html=1;strokeWidth=2;" parent="Q75kil237R-haqhPHwh4-4" source="eVrrcnmWHCSy6bfWXj4--1" target="pVf5M4L88B7sSgUoJ78F-1" edge="1">
          <mxGeometry relative="1" as="geometry" />
        </mxCell>
        <mxCell id="eVrrcnmWHCSy6bfWXj4--1" value="Начало" style="ellipse;whiteSpace=wrap;html=1;fontSize=18;fontFamily=Lucida Console;strokeWidth=2;" parent="Q75kil237R-haqhPHwh4-4" vertex="1">
          <mxGeometry x="99.99999999999955" y="46" width="120" height="42" as="geometry" />
        </mxCell>
        <mxCell id="pVf5M4L88B7sSgUoJ78F-1" value="Составленный договор аренды" style="shape=parallelogram;html=1;strokeWidth=2;perimeter=parallelogramPerimeter;whiteSpace=wrap;rounded=1;arcSize=12;size=0.23;fontSize=18;fontFamily=Lucida Console;" parent="Q75kil237R-haqhPHwh4-4" vertex="1">
          <mxGeometry x="55" y="120" width="209" height="60" as="geometry" />
        </mxCell>
        <mxCell id="ULZYGy4jq2OwbmwLsIlk-3" value="&lt;div&gt;Подписанный&lt;/div&gt;&lt;div&gt;договор аренды&lt;/div&gt;&lt;div&gt;1-ой стороной&lt;br&gt;&lt;/div&gt;" style="shape=parallelogram;html=1;strokeWidth=2;perimeter=parallelogramPerimeter;whiteSpace=wrap;rounded=1;arcSize=12;size=0.23;fontSize=18;fontFamily=Lucida Console;" parent="Q75kil237R-haqhPHwh4-4" vertex="1">
          <mxGeometry x="37.5" y="220" width="245" height="60" as="geometry" />
        </mxCell>
        <mxCell id="7jG04VSvbDKxPnAo1lyC-8" value="" style="edgeStyle=orthogonalEdgeStyle;rounded=0;orthogonalLoop=1;jettySize=auto;html=1;strokeWidth=2;" parent="Q75kil237R-haqhPHwh4-4" source="7jG04VSvbDKxPnAo1lyC-6" target="7jG04VSvbDKxPnAo1lyC-7" edge="1">
          <mxGeometry relative="1" as="geometry" />
        </mxCell>
        <mxCell id="7jG04VSvbDKxPnAo1lyC-6" value="&lt;div&gt;Подписанный&lt;/div&gt;&lt;div&gt;договор аренды&lt;/div&gt;&lt;div&gt;2-мя сторонами&lt;br&gt;&lt;/div&gt;" style="shape=parallelogram;html=1;strokeWidth=2;perimeter=parallelogramPerimeter;whiteSpace=wrap;rounded=1;arcSize=12;size=0.23;fontSize=18;fontFamily=Lucida Console;" parent="Q75kil237R-haqhPHwh4-4" vertex="1">
          <mxGeometry x="37.5" y="320" width="245" height="60" as="geometry" />
        </mxCell>
        <mxCell id="7jG04VSvbDKxPnAo1lyC-10" value="" style="edgeStyle=orthogonalEdgeStyle;rounded=0;orthogonalLoop=1;jettySize=auto;html=1;strokeWidth=2;" parent="Q75kil237R-haqhPHwh4-4" source="7jG04VSvbDKxPnAo1lyC-7" target="7jG04VSvbDKxPnAo1lyC-9" edge="1">
          <mxGeometry relative="1" as="geometry" />
        </mxCell>
        <mxCell id="7jG04VSvbDKxPnAo1lyC-7" value="Составление счета" style="rounded=1;whiteSpace=wrap;html=1;absoluteArcSize=1;arcSize=14;strokeWidth=2;fontSize=18;fontFamily=Lucida Console;" parent="Q75kil237R-haqhPHwh4-4" vertex="1">
          <mxGeometry x="75.99999999999955" y="424" width="168" height="50" as="geometry" />
        </mxCell>
        <mxCell id="7jG04VSvbDKxPnAo1lyC-9" value="&lt;div&gt;Составленный&lt;/div&gt;&lt;div&gt;счет&lt;br&gt;&lt;/div&gt;" style="shape=parallelogram;html=1;strokeWidth=2;perimeter=parallelogramPerimeter;whiteSpace=wrap;rounded=1;arcSize=12;size=0.23;fontSize=18;fontFamily=Lucida Console;" parent="Q75kil237R-haqhPHwh4-4" vertex="1">
          <mxGeometry x="55.5" y="504" width="209" height="60" as="geometry" />
        </mxCell>
        <mxCell id="7jG04VSvbDKxPnAo1lyC-21" value="" style="edgeStyle=orthogonalEdgeStyle;rounded=0;orthogonalLoop=1;jettySize=auto;html=1;strokeWidth=2;" parent="Q75kil237R-haqhPHwh4-4" source="7jG04VSvbDKxPnAo1lyC-13" target="7jG04VSvbDKxPnAo1lyC-20" edge="1">
          <mxGeometry relative="1" as="geometry" />
        </mxCell>
        <mxCell id="7jG04VSvbDKxPnAo1lyC-13" value="&lt;div&gt;Подписанный&lt;/div&gt;&lt;div&gt;счет 1-ой стороной&lt;br&gt;&lt;/div&gt;" style="shape=parallelogram;html=1;strokeWidth=2;perimeter=parallelogramPerimeter;whiteSpace=wrap;rounded=1;arcSize=12;size=0.23;fontSize=18;fontFamily=Lucida Console;" parent="Q75kil237R-haqhPHwh4-4" vertex="1">
          <mxGeometry x="37.5" y="604" width="245" height="60" as="geometry" />
        </mxCell>
        <mxCell id="7jG04VSvbDKxPnAo1lyC-22" value="" style="edgeStyle=orthogonalEdgeStyle;rounded=0;orthogonalLoop=1;jettySize=auto;html=1;strokeWidth=2;" parent="Q75kil237R-haqhPHwh4-4" source="7jG04VSvbDKxPnAo1lyC-20" target="7jG04VSvbDKxPnAo1lyC-17" edge="1">
          <mxGeometry relative="1" as="geometry" />
        </mxCell>
        <mxCell id="7jG04VSvbDKxPnAo1lyC-20" value="Подписание счета" style="rounded=1;whiteSpace=wrap;html=1;absoluteArcSize=1;arcSize=14;strokeWidth=2;fontSize=18;fontFamily=Lucida Console;" parent="Q75kil237R-haqhPHwh4-4" vertex="1">
          <mxGeometry x="75.99999999999955" y="704" width="168" height="50" as="geometry" />
        </mxCell>
        <mxCell id="7jG04VSvbDKxPnAo1lyC-24" value="" style="edgeStyle=orthogonalEdgeStyle;rounded=0;orthogonalLoop=1;jettySize=auto;html=1;strokeWidth=2;" parent="Q75kil237R-haqhPHwh4-4" source="7jG04VSvbDKxPnAo1lyC-17" target="7jG04VSvbDKxPnAo1lyC-23" edge="1">
          <mxGeometry relative="1" as="geometry" />
        </mxCell>
        <mxCell id="7jG04VSvbDKxPnAo1lyC-17" value="&lt;div&gt;Подписанный&lt;/div&gt;&lt;div&gt;счет 2-мя сторонами&lt;br&gt;&lt;/div&gt;" style="shape=parallelogram;html=1;strokeWidth=2;perimeter=parallelogramPerimeter;whiteSpace=wrap;rounded=1;arcSize=12;size=0.23;fontSize=18;fontFamily=Lucida Console;" parent="Q75kil237R-haqhPHwh4-4" vertex="1">
          <mxGeometry x="37.5" y="804" width="245" height="60" as="geometry" />
        </mxCell>
        <mxCell id="7jG04VSvbDKxPnAo1lyC-23" value="Конец" style="ellipse;whiteSpace=wrap;html=1;fontSize=18;fontFamily=Lucida Console;strokeWidth=2;" parent="Q75kil237R-haqhPHwh4-4" vertex="1">
          <mxGeometry x="99.99999999999955" y="904" width="120" height="42" as="geometry" />
        </mxCell>
        <mxCell id="Q75kil237R-haqhPHwh4-5" value="Заказчик" style="swimlane;startSize=30;html=1;strokeWidth=2;fontSize=18;fontFamily=Lucida Console;" parent="Q75kil237R-haqhPHwh4-2" vertex="1">
          <mxGeometry x="520" y="26" width="200" height="1004" as="geometry" />
        </mxCell>
        <mxCell id="7jG04VSvbDKxPnAo1lyC-1" value="Подписание договора аренды" style="rounded=1;whiteSpace=wrap;html=1;absoluteArcSize=1;arcSize=14;strokeWidth=2;fontSize=18;fontFamily=Lucida Console;" parent="Q75kil237R-haqhPHwh4-5" vertex="1">
          <mxGeometry x="15.999999999999545" y="225" width="168" height="50" as="geometry" />
        </mxCell>
        <mxCell id="ULZYGy4jq2OwbmwLsIlk-2" value="" style="edgeStyle=orthogonalEdgeStyle;rounded=0;orthogonalLoop=1;jettySize=auto;html=1;strokeWidth=2;" parent="Q75kil237R-haqhPHwh4-2" source="pVf5M4L88B7sSgUoJ78F-1" target="ULZYGy4jq2OwbmwLsIlk-1" edge="1">
          <mxGeometry relative="1" as="geometry" />
        </mxCell>
        <mxCell id="ULZYGy4jq2OwbmwLsIlk-4" style="edgeStyle=orthogonalEdgeStyle;rounded=1;orthogonalLoop=1;jettySize=auto;html=1;exitX=0.5;exitY=1;exitDx=0;exitDy=0;entryX=0.5;entryY=0;entryDx=0;entryDy=0;strokeWidth=2;curved=0;" parent="Q75kil237R-haqhPHwh4-2" source="ULZYGy4jq2OwbmwLsIlk-1" target="ULZYGy4jq2OwbmwLsIlk-3" edge="1">
          <mxGeometry relative="1" as="geometry" />
        </mxCell>
        <mxCell id="7jG04VSvbDKxPnAo1lyC-2" value="" style="edgeStyle=orthogonalEdgeStyle;rounded=0;orthogonalLoop=1;jettySize=auto;html=1;strokeWidth=2;" parent="Q75kil237R-haqhPHwh4-2" source="ULZYGy4jq2OwbmwLsIlk-3" target="7jG04VSvbDKxPnAo1lyC-1" edge="1">
          <mxGeometry relative="1" as="geometry" />
        </mxCell>
        <mxCell id="7jG04VSvbDKxPnAo1lyC-5" style="edgeStyle=orthogonalEdgeStyle;rounded=1;orthogonalLoop=1;jettySize=auto;html=1;exitX=0.5;exitY=1;exitDx=0;exitDy=0;entryX=0.5;entryY=0;entryDx=0;entryDy=0;strokeWidth=2;curved=0;" parent="Q75kil237R-haqhPHwh4-2" source="7jG04VSvbDKxPnAo1lyC-1" target="7jG04VSvbDKxPnAo1lyC-6" edge="1">
          <mxGeometry relative="1" as="geometry">
            <mxPoint x="347.25" y="346" as="targetPoint" />
          </mxGeometry>
        </mxCell>
        <mxCell id="7jG04VSvbDKxPnAo1lyC-12" value="" style="edgeStyle=orthogonalEdgeStyle;rounded=0;orthogonalLoop=1;jettySize=auto;html=1;strokeWidth=2;" parent="Q75kil237R-haqhPHwh4-2" source="7jG04VSvbDKxPnAo1lyC-9" target="7jG04VSvbDKxPnAo1lyC-11" edge="1">
          <mxGeometry relative="1" as="geometry" />
        </mxCell>
        <mxCell id="7jG04VSvbDKxPnAo1lyC-14" style="edgeStyle=orthogonalEdgeStyle;rounded=1;orthogonalLoop=1;jettySize=auto;html=1;exitX=0.5;exitY=1;exitDx=0;exitDy=0;entryX=0.5;entryY=0;entryDx=0;entryDy=0;strokeWidth=2;curved=0;" parent="Q75kil237R-haqhPHwh4-2" source="7jG04VSvbDKxPnAo1lyC-11" target="7jG04VSvbDKxPnAo1lyC-13" edge="1">
          <mxGeometry relative="1" as="geometry" />
        </mxCell>
      </root>
    </mxGraphModel>
  </diagram>
  <diagram id="EFDZLktjUCb6g2gCDyIC" name="Передача оборудования (декомпозиция 2-ого уровня)">
    <mxGraphModel dx="1909" dy="1029" grid="1" gridSize="12" guides="1" tooltips="1" connect="1" arrows="1" fold="1" page="1" pageScale="1" pageWidth="1169" pageHeight="827" math="0" shadow="0">
      <root>
        <mxCell id="0" />
        <mxCell id="1" parent="0" />
        <mxCell id="jizr8u2s4ToVkhwycMIK-1" value="Передача оборудования" style="swimlane;childLayout=stackLayout;resizeParent=1;resizeParentMax=0;startSize=36;html=1;strokeWidth=2;fontSize=18;fontFamily=Lucida Console;" parent="1" vertex="1">
          <mxGeometry x="372" y="18" width="1440" height="792" as="geometry" />
        </mxCell>
        <mxCell id="jizr8u2s4ToVkhwycMIK-3" value="Главный бухгалтер" style="swimlane;startSize=52;html=1;strokeWidth=2;fontSize=14;fontFamily=Lucida Console;" parent="jizr8u2s4ToVkhwycMIK-1" vertex="1">
          <mxGeometry y="36" width="240" height="756" as="geometry" />
        </mxCell>
        <mxCell id="mnQTrT_zeXcB26jgEI60-5" value="" style="edgeStyle=orthogonalEdgeStyle;rounded=0;orthogonalLoop=1;jettySize=auto;html=1;strokeWidth=2;" parent="jizr8u2s4ToVkhwycMIK-3" source="jizr8u2s4ToVkhwycMIK-18" target="jizr8u2s4ToVkhwycMIK-16" edge="1">
          <mxGeometry relative="1" as="geometry" />
        </mxCell>
        <mxCell id="jizr8u2s4ToVkhwycMIK-18" value="Составление акта пр.-пер." style="rounded=1;whiteSpace=wrap;html=1;absoluteArcSize=1;arcSize=14;strokeWidth=2;fontSize=18;fontFamily=Lucida Console;" parent="jizr8u2s4ToVkhwycMIK-3" vertex="1">
          <mxGeometry x="36" y="162" width="168" height="50" as="geometry" />
        </mxCell>
        <mxCell id="mnQTrT_zeXcB26jgEI60-2" value="" style="edgeStyle=orthogonalEdgeStyle;rounded=0;orthogonalLoop=1;jettySize=auto;html=1;strokeWidth=2;" parent="jizr8u2s4ToVkhwycMIK-3" source="jizr8u2s4ToVkhwycMIK-11" target="jizr8u2s4ToVkhwycMIK-18" edge="1">
          <mxGeometry relative="1" as="geometry" />
        </mxCell>
        <mxCell id="jizr8u2s4ToVkhwycMIK-11" value="Начало" style="ellipse;whiteSpace=wrap;html=1;fontSize=18;fontFamily=Lucida Console;strokeWidth=2;" parent="jizr8u2s4ToVkhwycMIK-3" vertex="1">
          <mxGeometry x="60" y="74" width="120" height="42" as="geometry" />
        </mxCell>
        <mxCell id="jizr8u2s4ToVkhwycMIK-16" value="&lt;div&gt;Составленный&lt;/div&gt;&lt;div&gt;акт пр.-пер.&lt;br&gt;&lt;/div&gt;" style="shape=parallelogram;html=1;strokeWidth=2;perimeter=parallelogramPerimeter;whiteSpace=wrap;rounded=1;arcSize=12;size=0.23;fontSize=18;fontFamily=Lucida Console;" parent="jizr8u2s4ToVkhwycMIK-3" vertex="1">
          <mxGeometry x="21" y="246" width="198" height="60" as="geometry" />
        </mxCell>
        <mxCell id="jizr8u2s4ToVkhwycMIK-4" value="Начальник хоз. отдела" style="swimlane;startSize=52;html=1;strokeWidth=2;fontSize=14;fontFamily=Lucida Console;" parent="jizr8u2s4ToVkhwycMIK-1" vertex="1">
          <mxGeometry x="240" y="36" width="240" height="756" as="geometry" />
        </mxCell>
        <mxCell id="jizr8u2s4ToVkhwycMIK-20" value="Счет&lt;div&gt;Договор аренды&lt;br&gt;Акт пр.-пер.&lt;/div&gt;" style="shape=parallelogram;html=1;strokeWidth=2;perimeter=parallelogramPerimeter;whiteSpace=wrap;rounded=1;arcSize=12;size=0.23;fontSize=18;fontFamily=Lucida Console;" parent="jizr8u2s4ToVkhwycMIK-4" vertex="1">
          <mxGeometry x="12" y="245.5" width="228" height="61" as="geometry" />
        </mxCell>
        <mxCell id="jizr8u2s4ToVkhwycMIK-10" value="Ведущий специалист&lt;br&gt;Главный специалист&lt;br&gt;Специалист 2-ой категории" style="swimlane;startSize=52;html=1;strokeWidth=2;fontSize=14;fontFamily=Lucida Console;" parent="jizr8u2s4ToVkhwycMIK-1" vertex="1">
          <mxGeometry x="480" y="36" width="960" height="756" as="geometry" />
        </mxCell>
        <mxCell id="jizr8u2s4ToVkhwycMIK-27" value="" style="edgeStyle=orthogonalEdgeStyle;rounded=0;orthogonalLoop=1;jettySize=auto;html=1;strokeWidth=2;" parent="jizr8u2s4ToVkhwycMIK-10" source="jizr8u2s4ToVkhwycMIK-24" target="jizr8u2s4ToVkhwycMIK-26" edge="1">
          <mxGeometry relative="1" as="geometry" />
        </mxCell>
        <mxCell id="jizr8u2s4ToVkhwycMIK-24" value="Счет&lt;div&gt;Договор аренды&lt;br&gt;Акт пр.-пер.&lt;/div&gt;" style="shape=parallelogram;html=1;strokeWidth=2;perimeter=parallelogramPerimeter;whiteSpace=wrap;rounded=1;arcSize=12;size=0.23;fontSize=18;fontFamily=Lucida Console;" parent="jizr8u2s4ToVkhwycMIK-10" vertex="1">
          <mxGeometry x="363" y="74" width="234" height="60" as="geometry" />
        </mxCell>
        <mxCell id="jizr8u2s4ToVkhwycMIK-29" style="edgeStyle=orthogonalEdgeStyle;rounded=1;orthogonalLoop=1;jettySize=auto;html=1;exitX=1;exitY=0.5;exitDx=0;exitDy=0;exitPerimeter=0;entryX=0.5;entryY=0;entryDx=0;entryDy=0;strokeWidth=2;curved=0;" parent="jizr8u2s4ToVkhwycMIK-10" source="jizr8u2s4ToVkhwycMIK-26" target="jizr8u2s4ToVkhwycMIK-28" edge="1">
          <mxGeometry relative="1" as="geometry" />
        </mxCell>
        <mxCell id="jizr8u2s4ToVkhwycMIK-30" value="Не пройдена" style="edgeLabel;html=1;align=center;verticalAlign=middle;resizable=0;points=[];fontSize=14;fontFamily=Lucida Console;labelBackgroundColor=none;" parent="jizr8u2s4ToVkhwycMIK-29" vertex="1" connectable="0">
          <mxGeometry x="-0.2445" y="-2" relative="1" as="geometry">
            <mxPoint x="-47" y="-21" as="offset" />
          </mxGeometry>
        </mxCell>
        <mxCell id="jizr8u2s4ToVkhwycMIK-26" value="Проверка &lt;br&gt;оборудования" style="strokeWidth=2;html=1;shape=mxgraph.flowchart.decision;whiteSpace=wrap;fontSize=18;fontFamily=Lucida Console;" parent="jizr8u2s4ToVkhwycMIK-10" vertex="1">
          <mxGeometry x="342" y="180" width="276" height="78" as="geometry" />
        </mxCell>
        <mxCell id="jizr8u2s4ToVkhwycMIK-49" value="" style="edgeStyle=orthogonalEdgeStyle;rounded=0;orthogonalLoop=1;jettySize=auto;html=1;strokeWidth=2;" parent="jizr8u2s4ToVkhwycMIK-10" source="jizr8u2s4ToVkhwycMIK-28" target="jizr8u2s4ToVkhwycMIK-48" edge="1">
          <mxGeometry relative="1" as="geometry" />
        </mxCell>
        <mxCell id="jizr8u2s4ToVkhwycMIK-28" value="Приостановка сделки" style="rounded=1;whiteSpace=wrap;html=1;absoluteArcSize=1;arcSize=14;strokeWidth=2;fontSize=18;fontFamily=Lucida Console;" parent="jizr8u2s4ToVkhwycMIK-10" vertex="1">
          <mxGeometry x="597" y="296" width="168" height="50" as="geometry" />
        </mxCell>
        <mxCell id="jizr8u2s4ToVkhwycMIK-35" style="edgeStyle=orthogonalEdgeStyle;rounded=1;orthogonalLoop=1;jettySize=auto;html=1;exitX=0;exitY=0.5;exitDx=0;exitDy=0;exitPerimeter=0;strokeWidth=2;curved=0;entryX=0.5;entryY=0;entryDx=0;entryDy=0;" parent="jizr8u2s4ToVkhwycMIK-10" source="jizr8u2s4ToVkhwycMIK-31" target="jizr8u2s4ToVkhwycMIK-38" edge="1">
          <mxGeometry relative="1" as="geometry">
            <mxPoint x="108" y="366" as="targetPoint" />
          </mxGeometry>
        </mxCell>
        <mxCell id="jizr8u2s4ToVkhwycMIK-44" value="Согласен" style="edgeLabel;html=1;align=center;verticalAlign=middle;resizable=0;points=[];fontSize=14;fontFamily=Lucida Console;labelBackgroundColor=none;" parent="jizr8u2s4ToVkhwycMIK-35" vertex="1" connectable="0">
          <mxGeometry x="-0.5593" y="4" relative="1" as="geometry">
            <mxPoint x="9" y="-18" as="offset" />
          </mxGeometry>
        </mxCell>
        <mxCell id="jizr8u2s4ToVkhwycMIK-51" style="edgeStyle=orthogonalEdgeStyle;rounded=1;orthogonalLoop=1;jettySize=auto;html=1;exitX=1;exitY=0.5;exitDx=0;exitDy=0;exitPerimeter=0;entryX=0.5;entryY=0;entryDx=0;entryDy=0;strokeWidth=2;curved=0;" parent="jizr8u2s4ToVkhwycMIK-10" source="jizr8u2s4ToVkhwycMIK-31" target="jizr8u2s4ToVkhwycMIK-50" edge="1">
          <mxGeometry relative="1" as="geometry" />
        </mxCell>
        <mxCell id="jizr8u2s4ToVkhwycMIK-53" value="Не согласен" style="edgeLabel;html=1;align=center;verticalAlign=middle;resizable=0;points=[];fontSize=14;fontFamily=Lucida Console;labelBackgroundColor=none;" parent="jizr8u2s4ToVkhwycMIK-51" vertex="1" connectable="0">
          <mxGeometry x="-0.166" y="-2" relative="1" as="geometry">
            <mxPoint x="-10" y="-17" as="offset" />
          </mxGeometry>
        </mxCell>
        <mxCell id="jizr8u2s4ToVkhwycMIK-31" value="Согласование условий" style="strokeWidth=2;html=1;shape=mxgraph.flowchart.decision;whiteSpace=wrap;fontSize=18;fontFamily=Lucida Console;" parent="jizr8u2s4ToVkhwycMIK-10" vertex="1">
          <mxGeometry x="132" y="282" width="276" height="78" as="geometry" />
        </mxCell>
        <mxCell id="jizr8u2s4ToVkhwycMIK-32" style="edgeStyle=orthogonalEdgeStyle;rounded=1;orthogonalLoop=1;jettySize=auto;html=1;exitX=0;exitY=0.5;exitDx=0;exitDy=0;exitPerimeter=0;entryX=0.5;entryY=0;entryDx=0;entryDy=0;entryPerimeter=0;strokeWidth=2;curved=0;" parent="jizr8u2s4ToVkhwycMIK-10" source="jizr8u2s4ToVkhwycMIK-26" target="jizr8u2s4ToVkhwycMIK-31" edge="1">
          <mxGeometry relative="1" as="geometry" />
        </mxCell>
        <mxCell id="jizr8u2s4ToVkhwycMIK-33" value="Пройдена" style="edgeLabel;html=1;align=center;verticalAlign=middle;resizable=0;points=[];fontSize=14;fontFamily=Lucida Console;labelBackgroundColor=none;" parent="jizr8u2s4ToVkhwycMIK-32" vertex="1" connectable="0">
          <mxGeometry x="-0.6769" relative="1" as="geometry">
            <mxPoint x="-8" y="-19" as="offset" />
          </mxGeometry>
        </mxCell>
        <mxCell id="jizr8u2s4ToVkhwycMIK-41" value="" style="edgeStyle=orthogonalEdgeStyle;rounded=0;orthogonalLoop=1;jettySize=auto;html=1;strokeWidth=2;" parent="jizr8u2s4ToVkhwycMIK-10" source="jizr8u2s4ToVkhwycMIK-38" target="jizr8u2s4ToVkhwycMIK-40" edge="1">
          <mxGeometry relative="1" as="geometry" />
        </mxCell>
        <mxCell id="jizr8u2s4ToVkhwycMIK-38" value="Выдача документов на оборудование" style="shape=parallelogram;html=1;strokeWidth=2;perimeter=parallelogramPerimeter;whiteSpace=wrap;rounded=1;arcSize=12;size=0.23;fontSize=18;fontFamily=Lucida Console;" parent="jizr8u2s4ToVkhwycMIK-10" vertex="1">
          <mxGeometry x="4.5" y="381" width="183" height="60" as="geometry" />
        </mxCell>
        <mxCell id="jizr8u2s4ToVkhwycMIK-43" value="" style="edgeStyle=orthogonalEdgeStyle;rounded=0;orthogonalLoop=1;jettySize=auto;html=1;strokeWidth=2;" parent="jizr8u2s4ToVkhwycMIK-10" source="jizr8u2s4ToVkhwycMIK-40" target="jizr8u2s4ToVkhwycMIK-42" edge="1">
          <mxGeometry relative="1" as="geometry" />
        </mxCell>
        <mxCell id="jizr8u2s4ToVkhwycMIK-40" value="Выдача оборудования" style="rounded=1;whiteSpace=wrap;html=1;absoluteArcSize=1;arcSize=14;strokeWidth=2;fontSize=18;fontFamily=Lucida Console;" parent="jizr8u2s4ToVkhwycMIK-10" vertex="1">
          <mxGeometry x="12" y="483" width="168" height="66" as="geometry" />
        </mxCell>
        <mxCell id="jizr8u2s4ToVkhwycMIK-42" value="Конец" style="ellipse;whiteSpace=wrap;html=1;fontSize=18;fontFamily=Lucida Console;strokeWidth=2;" parent="jizr8u2s4ToVkhwycMIK-10" vertex="1">
          <mxGeometry x="36" y="594" width="120" height="42" as="geometry" />
        </mxCell>
        <mxCell id="jizr8u2s4ToVkhwycMIK-45" value="Конец" style="ellipse;whiteSpace=wrap;html=1;fontSize=18;fontFamily=Lucida Console;strokeWidth=2;" parent="jizr8u2s4ToVkhwycMIK-10" vertex="1">
          <mxGeometry x="384" y="495" width="120" height="42" as="geometry" />
        </mxCell>
        <mxCell id="jizr8u2s4ToVkhwycMIK-56" style="edgeStyle=orthogonalEdgeStyle;rounded=1;orthogonalLoop=1;jettySize=auto;html=1;exitX=0;exitY=0.5;exitDx=0;exitDy=0;exitPerimeter=0;entryX=0.5;entryY=0;entryDx=0;entryDy=0;strokeWidth=2;curved=0;" parent="jizr8u2s4ToVkhwycMIK-10" source="jizr8u2s4ToVkhwycMIK-48" target="jizr8u2s4ToVkhwycMIK-54" edge="1">
          <mxGeometry relative="1" as="geometry" />
        </mxCell>
        <mxCell id="jizr8u2s4ToVkhwycMIK-58" value="Согласен" style="edgeLabel;html=1;align=center;verticalAlign=middle;resizable=0;points=[];fontSize=14;fontFamily=Lucida Console;labelBackgroundColor=none;" parent="jizr8u2s4ToVkhwycMIK-56" vertex="1" connectable="0">
          <mxGeometry x="-0.652" y="-3" relative="1" as="geometry">
            <mxPoint x="32" y="-24" as="offset" />
          </mxGeometry>
        </mxCell>
        <mxCell id="jizr8u2s4ToVkhwycMIK-57" style="edgeStyle=orthogonalEdgeStyle;rounded=1;orthogonalLoop=1;jettySize=auto;html=1;exitX=1;exitY=0.5;exitDx=0;exitDy=0;exitPerimeter=0;entryX=0.5;entryY=0;entryDx=0;entryDy=0;strokeWidth=2;curved=0;" parent="jizr8u2s4ToVkhwycMIK-10" source="jizr8u2s4ToVkhwycMIK-48" target="jizr8u2s4ToVkhwycMIK-55" edge="1">
          <mxGeometry relative="1" as="geometry" />
        </mxCell>
        <mxCell id="jizr8u2s4ToVkhwycMIK-59" value="Не согласен" style="edgeLabel;html=1;align=center;verticalAlign=middle;resizable=0;points=[];fontSize=14;fontFamily=Lucida Console;labelBackgroundColor=none;" parent="jizr8u2s4ToVkhwycMIK-57" vertex="1" connectable="0">
          <mxGeometry x="0.0881" y="-1" relative="1" as="geometry">
            <mxPoint x="-35" y="-41" as="offset" />
          </mxGeometry>
        </mxCell>
        <mxCell id="jizr8u2s4ToVkhwycMIK-48" value="Согласование с заказчиком" style="strokeWidth=2;html=1;shape=mxgraph.flowchart.decision;whiteSpace=wrap;fontSize=18;fontFamily=Lucida Console;" parent="jizr8u2s4ToVkhwycMIK-10" vertex="1">
          <mxGeometry x="520.5" y="510" width="321" height="78" as="geometry" />
        </mxCell>
        <mxCell id="jizr8u2s4ToVkhwycMIK-52" style="edgeStyle=orthogonalEdgeStyle;rounded=0;orthogonalLoop=1;jettySize=auto;html=1;exitX=0.5;exitY=1;exitDx=0;exitDy=0;entryX=0.5;entryY=0;entryDx=0;entryDy=0;strokeWidth=2;" parent="jizr8u2s4ToVkhwycMIK-10" source="jizr8u2s4ToVkhwycMIK-50" target="jizr8u2s4ToVkhwycMIK-45" edge="1">
          <mxGeometry relative="1" as="geometry" />
        </mxCell>
        <mxCell id="jizr8u2s4ToVkhwycMIK-50" value="Расторжение договора аренды&lt;div&gt;Удаление счета, акта пр.-пер.&lt;/div&gt;" style="rounded=1;whiteSpace=wrap;html=1;absoluteArcSize=1;arcSize=14;strokeWidth=2;fontSize=18;fontFamily=Lucida Console;" parent="jizr8u2s4ToVkhwycMIK-10" vertex="1">
          <mxGeometry x="360" y="366" width="168" height="90" as="geometry" />
        </mxCell>
        <mxCell id="jizr8u2s4ToVkhwycMIK-62" style="edgeStyle=orthogonalEdgeStyle;rounded=1;orthogonalLoop=1;jettySize=auto;html=1;exitX=0.5;exitY=1;exitDx=0;exitDy=0;entryX=0.5;entryY=0;entryDx=0;entryDy=0;strokeWidth=2;curved=0;" parent="jizr8u2s4ToVkhwycMIK-10" source="jizr8u2s4ToVkhwycMIK-54" target="jizr8u2s4ToVkhwycMIK-60" edge="1">
          <mxGeometry relative="1" as="geometry" />
        </mxCell>
        <mxCell id="jizr8u2s4ToVkhwycMIK-54" value="Перенос сроков" style="rounded=1;whiteSpace=wrap;html=1;absoluteArcSize=1;arcSize=14;strokeWidth=2;fontSize=18;fontFamily=Lucida Console;" parent="jizr8u2s4ToVkhwycMIK-10" vertex="1">
          <mxGeometry x="408" y="594" width="168" height="66" as="geometry" />
        </mxCell>
        <mxCell id="jizr8u2s4ToVkhwycMIK-61" style="edgeStyle=orthogonalEdgeStyle;rounded=1;orthogonalLoop=1;jettySize=auto;html=1;exitX=0.5;exitY=1;exitDx=0;exitDy=0;entryX=0.5;entryY=0;entryDx=0;entryDy=0;strokeWidth=2;curved=0;" parent="jizr8u2s4ToVkhwycMIK-10" source="jizr8u2s4ToVkhwycMIK-55" target="jizr8u2s4ToVkhwycMIK-60" edge="1">
          <mxGeometry relative="1" as="geometry" />
        </mxCell>
        <mxCell id="jizr8u2s4ToVkhwycMIK-55" value="Отмена сделки" style="rounded=1;whiteSpace=wrap;html=1;absoluteArcSize=1;arcSize=14;strokeWidth=2;fontSize=18;fontFamily=Lucida Console;" parent="jizr8u2s4ToVkhwycMIK-10" vertex="1">
          <mxGeometry x="780" y="594" width="168" height="66" as="geometry" />
        </mxCell>
        <mxCell id="jizr8u2s4ToVkhwycMIK-60" value="Конец" style="ellipse;whiteSpace=wrap;html=1;fontSize=18;fontFamily=Lucida Console;strokeWidth=2;" parent="jizr8u2s4ToVkhwycMIK-10" vertex="1">
          <mxGeometry x="621" y="702" width="120" height="42" as="geometry" />
        </mxCell>
        <mxCell id="mnQTrT_zeXcB26jgEI60-4" style="edgeStyle=orthogonalEdgeStyle;rounded=1;orthogonalLoop=1;jettySize=auto;html=1;exitX=1;exitY=0.5;exitDx=0;exitDy=0;entryX=0;entryY=0.5;entryDx=0;entryDy=0;curved=0;strokeWidth=2;" parent="jizr8u2s4ToVkhwycMIK-1" source="jizr8u2s4ToVkhwycMIK-20" target="jizr8u2s4ToVkhwycMIK-24" edge="1">
          <mxGeometry relative="1" as="geometry">
            <Array as="points">
              <mxPoint x="636" y="312" />
              <mxPoint x="636" y="140" />
            </Array>
          </mxGeometry>
        </mxCell>
        <mxCell id="mnQTrT_zeXcB26jgEI60-6" value="" style="edgeStyle=orthogonalEdgeStyle;rounded=0;orthogonalLoop=1;jettySize=auto;html=1;strokeWidth=2;" parent="jizr8u2s4ToVkhwycMIK-1" source="jizr8u2s4ToVkhwycMIK-16" target="jizr8u2s4ToVkhwycMIK-20" edge="1">
          <mxGeometry relative="1" as="geometry" />
        </mxCell>
      </root>
    </mxGraphModel>
  </diagram>
  <diagram id="Xp0GWd6Oy5Naaa1Af6ed" name="Дерево узлов">
    <mxGraphModel dx="2669" dy="809" grid="1" gridSize="10" guides="1" tooltips="1" connect="1" arrows="1" fold="1" page="1" pageScale="1" pageWidth="1169" pageHeight="827" math="0" shadow="0">
      <root>
        <mxCell id="0" />
        <mxCell id="1" parent="0" />
        <UserObject label="&lt;div style=&quot;font-size: 25px;&quot;&gt;&lt;font style=&quot;font-size: 25px; color: rgb(0, 0, 0); direction: ltr; letter-spacing: 0px; line-height: 120%; opacity: 1;&quot;&gt;Предоставление производственного инвентаря в аренду&lt;br style=&quot;font-size: 25px;&quot;&gt;&lt;/font&gt;&lt;/div&gt;" tags="Блок-схема" id="QbKsVZ9jYeAxp3I7AqgH-1">
          <mxCell style="verticalAlign=middle;align=center;overflow=width;vsdxID=1;fillColor=#ffffff;gradientColor=none;shape=stencil(nZBLDoAgDERP0z3SIyjew0SURgSD+Lu9kMZoXLhwN9O+tukAlrNpJg1SzDH4QW/URgNYgZTkjA4UkwJUgGXng+6DX1zLfmoymdXo17xh5zmRJ6Q42BWCfc2oJfdAr+Yv+AP9Cb7OJ3H/2JG1HNGz/84klThPVCc=);strokeColor=#000000;strokeWidth=3;spacingTop=-1;spacingBottom=-1;spacingLeft=-1;spacingRight=-1;points=[[1,0.5,0],[0.5,0.5,0],[0.5,0,0]];labelBackgroundColor=none;rounded=0;html=1;whiteSpace=wrap;fontFamily=Lucida Console;fontSize=25;" parent="1" vertex="1">
            <mxGeometry x="-696" y="120" width="500" height="100" as="geometry" />
          </mxCell>
        </UserObject>
        <UserObject label="&lt;div style=&quot;font-size: 20px;&quot;&gt;&lt;font style=&quot;font-size: 20px; color: rgb(0, 0, 0); direction: ltr; letter-spacing: 0px; line-height: 120%; opacity: 1;&quot;&gt;Регистрация заказчика&lt;br style=&quot;font-size: 20px;&quot;&gt;&lt;/font&gt;&lt;/div&gt;" tags="Блок-схема" id="QbKsVZ9jYeAxp3I7AqgH-2">
          <mxCell style="verticalAlign=middle;align=center;overflow=width;vsdxID=2;fillColor=#ffffff;gradientColor=none;shape=stencil(nZBLDoAgDERP0z3SIyjew0SURgSD+Lu9kMZoXLhwN9O+tukAlrNpJg1SzDH4QW/URgNYgZTkjA4UkwJUgGXng+6DX1zLfmoymdXo17xh5zmRJ6Q42BWCfc2oJfdAr+Yv+AP9Cb7OJ3H/2JG1HNGz/84klThPVCc=);strokeColor=#000000;strokeWidth=3;spacingTop=-1;spacingBottom=-1;spacingLeft=-1;spacingRight=-1;points=[[0,0.5,0],[1,0.5,0],[0.5,1,0],[0.5,0,0]];labelBackgroundColor=none;rounded=0;html=1;whiteSpace=wrap;fontFamily=Lucida Console;fontSize=20;" parent="1" vertex="1">
            <mxGeometry x="-1070" y="360" width="170" height="60" as="geometry" />
          </mxCell>
        </UserObject>
        <UserObject label="&lt;div style=&quot;font-size: 20px;&quot;&gt;&lt;font style=&quot;font-size: 20px; color: rgb(0, 0, 0); direction: ltr; letter-spacing: 0px; line-height: 120%; opacity: 1;&quot;&gt;Выбор оборудования&lt;br style=&quot;font-size: 20px;&quot;&gt;&lt;/font&gt;&lt;/div&gt;" tags="Блок-схема" id="QbKsVZ9jYeAxp3I7AqgH-3">
          <mxCell style="verticalAlign=middle;align=center;overflow=width;vsdxID=3;fillColor=#ffffff;gradientColor=none;shape=stencil(nZBLDoAgDERP0z3SIyjew0SURgSD+Lu9kMZoXLhwN9O+tukAlrNpJg1SzDH4QW/URgNYgZTkjA4UkwJUgGXng+6DX1zLfmoymdXo17xh5zmRJ6Q42BWCfc2oJfdAr+Yv+AP9Cb7OJ3H/2JG1HNGz/84klThPVCc=);strokeColor=#000000;strokeWidth=3;spacingTop=-1;spacingBottom=-1;spacingLeft=-1;spacingRight=-1;points=[[0,0.5,0],[1,0.5,0],[0.5,1,0],[0.5,0,0]];labelBackgroundColor=none;rounded=0;html=1;whiteSpace=wrap;fontFamily=Lucida Console;fontSize=20;" parent="1" vertex="1">
            <mxGeometry x="-710" y="360" width="170" height="60" as="geometry" />
          </mxCell>
        </UserObject>
        <UserObject label="&lt;div style=&quot;font-size: 20px;&quot;&gt;&lt;font style=&quot;font-size: 20px; color: rgb(0, 0, 0); direction: ltr; letter-spacing: 0px; line-height: 120%; opacity: 1;&quot;&gt;Оформление документов&lt;br style=&quot;font-size: 20px;&quot;&gt;&lt;/font&gt;&lt;/div&gt;" tags="Блок-схема" id="QbKsVZ9jYeAxp3I7AqgH-4">
          <mxCell style="verticalAlign=middle;align=center;overflow=width;vsdxID=4;fillColor=#ffffff;gradientColor=none;shape=stencil(nZBLDoAgDERP0z3SIyjew0SURgSD+Lu9kMZoXLhwN9O+tukAlrNpJg1SzDH4QW/URgNYgZTkjA4UkwJUgGXng+6DX1zLfmoymdXo17xh5zmRJ6Q42BWCfc2oJfdAr+Yv+AP9Cb7OJ3H/2JG1HNGz/84klThPVCc=);strokeColor=#000000;strokeWidth=3;spacingTop=-1;spacingBottom=-1;spacingLeft=-1;spacingRight=-1;points=[[0,0.5,0],[1,0.5,0],[0.5,1,0],[0.5,0,0]];labelBackgroundColor=none;rounded=0;html=1;whiteSpace=wrap;fontFamily=Lucida Console;fontSize=20;" parent="1" vertex="1">
            <mxGeometry x="-360" y="360" width="170" height="60" as="geometry" />
          </mxCell>
        </UserObject>
        <UserObject label="Передача оборудования" tags="Блок-схема" id="QbKsVZ9jYeAxp3I7AqgH-5">
          <mxCell style="verticalAlign=middle;align=center;overflow=width;vsdxID=5;fillColor=#ffffff;gradientColor=none;shape=stencil(nZBLDoAgDERP0z3SIyjew0SURgSD+Lu9kMZoXLhwN9O+tukAlrNpJg1SzDH4QW/URgNYgZTkjA4UkwJUgGXng+6DX1zLfmoymdXo17xh5zmRJ6Q42BWCfc2oJfdAr+Yv+AP9Cb7OJ3H/2JG1HNGz/84klThPVCc=);strokeColor=#000000;strokeWidth=3;spacingTop=-1;spacingBottom=-1;spacingLeft=-1;spacingRight=-1;points=[[0,0.5,0],[1,0.5,0],[0.5,1,0],[0.5,0,0]];labelBackgroundColor=none;rounded=0;html=1;whiteSpace=wrap;fontFamily=Lucida Console;fontSize=20;" parent="1" vertex="1">
            <mxGeometry y="360" width="170" height="60" as="geometry" />
          </mxCell>
        </UserObject>
        <UserObject label="" tags="Соединительная_линия" id="QbKsVZ9jYeAxp3I7AqgH-10">
          <mxCell style="vsdxID=9;edgeStyle=none;startArrow=none;endArrow=block;startSize=5;endSize=5;strokeWidth=3;strokeColor=#000000;spacingTop=0;spacingBottom=0;spacingLeft=0;spacingRight=0;verticalAlign=middle;html=1;labelBackgroundColor=#ffffff;rounded=0;exitX=0.4023809523809524;exitY=1;exitDx=0;exitDy=0;exitPerimeter=0;entryX=0.5;entryY=0;entryDx=0;entryDy=0;entryPerimeter=0;" parent="1" source="QbKsVZ9jYeAxp3I7AqgH-1" target="QbKsVZ9jYeAxp3I7AqgH-3" edge="1">
            <mxGeometry relative="1" as="geometry">
              <mxPoint x="-1" as="offset" />
              <Array as="points" />
            </mxGeometry>
          </mxCell>
        </UserObject>
        <UserObject label="" tags="Соединительная_линия" id="QbKsVZ9jYeAxp3I7AqgH-11">
          <mxCell style="vsdxID=8;edgeStyle=none;startArrow=none;endArrow=block;startSize=5;endSize=5;strokeWidth=3;strokeColor=#000000;spacingTop=0;spacingBottom=0;spacingLeft=0;spacingRight=0;verticalAlign=middle;html=1;labelBackgroundColor=#ffffff;rounded=0;exitX=0.6095238095238096;exitY=1;exitDx=0;exitDy=0;exitPerimeter=0;entryX=0.5;entryY=0;entryDx=0;entryDy=0;entryPerimeter=0;" parent="1" source="QbKsVZ9jYeAxp3I7AqgH-1" target="QbKsVZ9jYeAxp3I7AqgH-4" edge="1">
            <mxGeometry relative="1" as="geometry">
              <mxPoint as="offset" />
              <Array as="points" />
            </mxGeometry>
          </mxCell>
        </UserObject>
        <UserObject label="" tags="Соединительная_линия" id="QbKsVZ9jYeAxp3I7AqgH-12">
          <mxCell style="vsdxID=7;edgeStyle=none;startArrow=none;endArrow=block;startSize=5;endSize=5;strokeWidth=3;strokeColor=#000000;spacingTop=0;spacingBottom=0;spacingLeft=0;spacingRight=0;verticalAlign=middle;html=1;labelBackgroundColor=#ffffff;rounded=0;exitX=0.7714285714285715;exitY=1;exitDx=0;exitDy=0;exitPerimeter=0;entryX=0.5;entryY=0;entryDx=0;entryDy=0;entryPerimeter=0;" parent="1" source="QbKsVZ9jYeAxp3I7AqgH-1" target="QbKsVZ9jYeAxp3I7AqgH-5" edge="1">
            <mxGeometry relative="1" as="geometry">
              <mxPoint x="-1" y="-1" as="offset" />
              <Array as="points" />
            </mxGeometry>
          </mxCell>
        </UserObject>
        <UserObject label="" tags="Соединительная_линия" id="QbKsVZ9jYeAxp3I7AqgH-13">
          <mxCell style="vsdxID=6;edgeStyle=none;startArrow=none;endArrow=block;startSize=5;endSize=5;strokeWidth=3;strokeColor=#000000;spacingTop=0;spacingBottom=0;spacingLeft=0;spacingRight=0;verticalAlign=middle;html=1;labelBackgroundColor=#ffffff;rounded=0;exitX=0.24523809523809523;exitY=1;exitDx=0;exitDy=0;exitPerimeter=0;entryX=0.5;entryY=0;entryDx=0;entryDy=0;entryPerimeter=0;" parent="1" source="QbKsVZ9jYeAxp3I7AqgH-1" target="QbKsVZ9jYeAxp3I7AqgH-2" edge="1">
            <mxGeometry relative="1" as="geometry">
              <mxPoint y="-1" as="offset" />
              <Array as="points" />
            </mxGeometry>
          </mxCell>
        </UserObject>
        <UserObject label="&lt;ul style=&quot;font-size: 16px;&quot;&gt;&lt;li&gt;&lt;div align=&quot;left&quot;&gt;&lt;font face=&quot;Lucida Console&quot;&gt;Заявка заказчика&lt;/font&gt;&lt;/div&gt;&lt;/li&gt;&lt;li&gt;&lt;font face=&quot;Lucida Console&quot;&gt;Проверка инвентаря&lt;/font&gt;&lt;br&gt;&lt;/li&gt;&lt;li&gt;&lt;font face=&quot;Lucida Console&quot;&gt;Определение условий аренды&lt;/font&gt;&lt;/li&gt;&lt;li&gt;&lt;font face=&quot;Lucida Console&quot;&gt;Составление договора аренды&lt;br&gt;&lt;/font&gt;&lt;/li&gt;&lt;/ul&gt;" tags="Фон" id="93cgCc0GG1Lj2l5XN0AG-1">
          <mxCell style="verticalAlign=middle;align=left;overflow=width;vsdxID=11;fillColor=none;gradientColor=none;shape=stencil(nZBLDoAgDERP0z3SIyjew0SURgSD+Lu9kMZoXLhwN9O+tukAlrNpJg1SzDH4QW/URgNYgZTkjA4UkwJUgGXng+6DX1zLfmoymdXo17xh5zmRJ6Q42BWCfc2oJfdAr+Yv+AP9Cb7OJ3H/2JG1HNGz/84klThPVCc=);strokeColor=none;strokeWidth=2;spacingTop=-1;spacingBottom=-1;spacingLeft=-1;spacingRight=-1;points=[];labelBackgroundColor=none;rounded=0;html=1;whiteSpace=wrap;" parent="1" vertex="1">
            <mxGeometry x="-790" y="440" width="330" height="186" as="geometry" />
          </mxCell>
        </UserObject>
        <UserObject label="&lt;ul style=&quot;font-size: 16px;&quot;&gt;&lt;li&gt;&lt;font face=&quot;Lucida Console&quot;&gt;Подписание договора аренды&lt;/font&gt;&lt;/li&gt;&lt;li&gt;&lt;font face=&quot;Lucida Console&quot;&gt;Составление счета&lt;/font&gt;&lt;/li&gt;&lt;li&gt;&lt;font face=&quot;Lucida Console&quot;&gt;Подписание счета&lt;br&gt;&lt;/font&gt;&lt;/li&gt;&lt;/ul&gt;" tags="Фон" id="wBEtUc9h1gHhWcb2O40f-1">
          <mxCell style="verticalAlign=middle;align=left;overflow=width;vsdxID=11;fillColor=none;gradientColor=none;shape=stencil(nZBLDoAgDERP0z3SIyjew0SURgSD+Lu9kMZoXLhwN9O+tukAlrNpJg1SzDH4QW/URgNYgZTkjA4UkwJUgGXng+6DX1zLfmoymdXo17xh5zmRJ6Q42BWCfc2oJfdAr+Yv+AP9Cb7OJ3H/2JG1HNGz/84klThPVCc=);strokeColor=none;strokeWidth=2;spacingTop=-1;spacingBottom=-1;spacingLeft=-1;spacingRight=-1;points=[];labelBackgroundColor=none;rounded=0;html=1;whiteSpace=wrap;" parent="1" vertex="1">
            <mxGeometry x="-440" y="440" width="330" height="186" as="geometry" />
          </mxCell>
        </UserObject>
        <UserObject label="&lt;ul style=&quot;font-size: 16px;&quot;&gt;&lt;li&gt;&lt;font style=&quot;font-size: 16px;&quot; face=&quot;Lucida Console&quot;&gt;Обращение заказчика&lt;/font&gt;&lt;/li&gt;&lt;li&gt;&lt;font style=&quot;font-size: 16px;&quot; face=&quot;Lucida Console&quot;&gt;Предоставление документов&lt;/font&gt;&lt;/li&gt;&lt;li&gt;&lt;font style=&quot;font-size: 16px;&quot; face=&quot;Lucida Console&quot;&gt;Проверка документов заказчика&lt;/font&gt;&lt;/li&gt;&lt;li&gt;&lt;font style=&quot;font-size: 16px;&quot; face=&quot;Lucida Console&quot;&gt;Идентификация заказчика&lt;/font&gt;&lt;/li&gt;&lt;li&gt;&lt;font style=&quot;font-size: 16px;&quot; face=&quot;Lucida Console&quot;&gt;Регистрация заказчика&lt;/font&gt;&lt;font style=&quot;font-size: 16px;&quot; face=&quot;kI6WMLtwtpkCjvTQ4uWx&quot;&gt;&lt;br&gt;&lt;/font&gt;&lt;/li&gt;&lt;/ul&gt;" tags="Фон" id="mP5TSyfDQCM19GBmsawx-1">
          <mxCell style="verticalAlign=middle;align=left;overflow=width;vsdxID=11;fillColor=none;gradientColor=none;shape=stencil(nZBLDoAgDERP0z3SIyjew0SURgSD+Lu9kMZoXLhwN9O+tukAlrNpJg1SzDH4QW/URgNYgZTkjA4UkwJUgGXng+6DX1zLfmoymdXo17xh5zmRJ6Q42BWCfc2oJfdAr+Yv+AP9Cb7OJ3H/2JG1HNGz/84klThPVCc=);strokeColor=none;strokeWidth=2;spacingTop=-1;spacingBottom=-1;spacingLeft=-1;spacingRight=-1;points=[];labelBackgroundColor=none;rounded=0;html=1;whiteSpace=wrap;" parent="1" vertex="1">
            <mxGeometry x="-1150" y="440" width="330" height="186" as="geometry" />
          </mxCell>
        </UserObject>
        <UserObject label="&lt;ul style=&quot;font-size: 16px;&quot;&gt;&lt;li&gt;&lt;font face=&quot;Lucida Console&quot;&gt;Составление акта приема-передачи&lt;/font&gt;&lt;/li&gt;&lt;li&gt;&lt;font face=&quot;Lucida Console&quot;&gt;Передача итоговых документов&lt;/font&gt;&lt;/li&gt;&lt;li&gt;&lt;font face=&quot;Lucida Console&quot;&gt;Проверка оборудования перед выдачей&lt;/font&gt;&lt;/li&gt;&lt;li&gt;&lt;font face=&quot;Lucida Console&quot;&gt;Согласование условий&lt;/font&gt;&lt;/li&gt;&lt;li&gt;&lt;font face=&quot;Lucida Console&quot;&gt;Передача заказчику оборудования и соответствующих документов&lt;/font&gt;&lt;br&gt;&lt;/li&gt;&lt;/ul&gt;" tags="Фон" id="mP5TSyfDQCM19GBmsawx-2">
          <mxCell style="verticalAlign=middle;align=left;overflow=width;vsdxID=11;fillColor=none;gradientColor=none;shape=stencil(nZBLDoAgDERP0z3SIyjew0SURgSD+Lu9kMZoXLhwN9O+tukAlrNpJg1SzDH4QW/URgNYgZTkjA4UkwJUgGXng+6DX1zLfmoymdXo17xh5zmRJ6Q42BWCfc2oJfdAr+Yv+AP9Cb7OJ3H/2JG1HNGz/84klThPVCc=);strokeColor=none;strokeWidth=2;spacingTop=-1;spacingBottom=-1;spacingLeft=-1;spacingRight=-1;points=[];labelBackgroundColor=none;rounded=0;html=1;whiteSpace=wrap;" parent="1" vertex="1">
            <mxGeometry x="-90" y="440" width="350" height="186" as="geometry" />
          </mxCell>
        </UserObject>
      </root>
    </mxGraphModel>
  </diagram>
</mxfile>
